<svg id="Layer" xmlns="http://www.w3.org/2000/svg" xmlns:xlink="http://www.w3.org/1999/xlink" viewBox="0 0 336.56 235.25"><defs><style>.cls-1{fill:none;}.cls-2,.cls-5{fill:#fff;}.cls-3{fill:url(#Névtelen_színátmenet_47);}.cls-4{fill:url(#Névtelen_színátmenet_64);}.cls-5{opacity:0.7;}.cls-35,.cls-6{opacity:0.6;}.cls-7{opacity:0.8;}.cls-8{fill:url(#Névtelen_színátmenet_20);}.cls-9{fill:url(#Névtelen_színátmenet_22);}.cls-10{fill:#372a74;}.cls-11{fill:url(#Névtelen_színátmenet_22-2);}.cls-12{fill:url(#Névtelen_színátmenet_42);}.cls-13{fill:url(#Névtelen_színátmenet_31);}.cls-14{fill:#1e2146;}.cls-15{fill:url(#Névtelen_színátmenet_23);}.cls-16{fill:#d85b83;}.cls-17{fill:url(#Névtelen_színátmenet_29);}.cls-18,.cls-19,.cls-20,.cls-21,.cls-22,.cls-23{opacity:0.5;}.cls-18{fill:url(#Névtelen_színátmenet_32);}.cls-19{fill:url(#Névtelen_színátmenet_32-2);}.cls-20{fill:url(#Névtelen_színátmenet_32-3);}.cls-21{fill:url(#Névtelen_színátmenet_32-4);}.cls-22{fill:url(#Névtelen_színátmenet_32-5);}.cls-23{fill:url(#Névtelen_színátmenet_32-6);}.cls-24{fill:#2a2a62;}.cls-25{fill:#9a367d;}.cls-26,.cls-28,.cls-29{opacity:0.2;}.cls-26{fill:url(#Új_mintázatos_színtár_1);}.cls-27,.cls-30{opacity:0.4;}.cls-27{fill:url(#Új_mintázatos_színtár_1-3);}.cls-28{fill:url(#Névtelen_színátmenet_32-7);}.cls-29{fill:url(#Névtelen_színátmenet_32-8);}.cls-30{fill:url(#Névtelen_színátmenet_32-9);}.cls-31{fill-rule:evenodd;opacity:0.1;fill:url(#Új_mintázatos_színtár_1-5);}.cls-32{fill:#1e2145;}.cls-33{fill:#f8c9d6;}.cls-34{fill:url(#Névtelen_színátmenet_57);}.cls-35{fill:url(#Névtelen_színátmenet_32-10);}.cls-36{fill:#28275b;}</style><linearGradient id="Névtelen_színátmenet_47" x1="166.01" y1="231.14" x2="166.01" y2="21.59" gradientTransform="matrix(-1, 0, 0, 1, 334, 0)" gradientUnits="userSpaceOnUse"><stop offset="0.44" stop-color="#f8c9d6"/><stop offset="0.56" stop-color="#f6bbcd"/><stop offset="0.79" stop-color="#f295b4"/><stop offset="1" stop-color="#ed6d99"/></linearGradient><linearGradient id="Névtelen_színátmenet_64" x1="269.32" y1="50.47" x2="293.06" y2="153.78" gradientUnits="userSpaceOnUse"><stop offset="0" stop-color="#fff" stop-opacity="0.2"/><stop offset="0.16" stop-color="#fff" stop-opacity="0.22"/><stop offset="0.34" stop-color="#fff" stop-opacity="0.27"/><stop offset="0.53" stop-color="#fff" stop-opacity="0.36"/><stop offset="0.74" stop-color="#fff" stop-opacity="0.49"/><stop offset="0.94" stop-color="#fff" stop-opacity="0.65"/><stop offset="1" stop-color="#fff" stop-opacity="0.7"/></linearGradient><linearGradient id="Névtelen_színátmenet_20" x1="110.17" y1="200.86" x2="110.17" y2="34.32" gradientUnits="userSpaceOnUse"><stop offset="0.06" stop-color="#9a367d"/><stop offset="0.66" stop-color="#d85b83"/></linearGradient><linearGradient id="Névtelen_színátmenet_22" x1="230.07" y1="200.86" x2="230.07" y2="34.32" gradientUnits="userSpaceOnUse"><stop offset="0.06" stop-color="#372a74"/><stop offset="0.66" stop-color="#9a367d"/></linearGradient><linearGradient id="Névtelen_színátmenet_22-2" x1="227.59" y1="235.19" x2="227.59" y2="163.89" xlink:href="#Névtelen_színátmenet_22"/><radialGradient id="Névtelen_színátmenet_42" cx="64.96" cy="61.99" r="22.53" gradientUnits="userSpaceOnUse"><stop offset="0" stop-color="#f8c9d6"/><stop offset="0.51" stop-color="#f8c9d6" stop-opacity="0.99"/><stop offset="0.7" stop-color="#f8c9d6" stop-opacity="0.96"/><stop offset="0.83" stop-color="#f8c9d6" stop-opacity="0.92"/><stop offset="0.94" stop-color="#f8c9d6" stop-opacity="0.85"/><stop offset="1" stop-color="#f8c9d6" stop-opacity="0.8"/></radialGradient><linearGradient id="Névtelen_színátmenet_31" x1="229.95" y1="186.41" x2="229.95" y2="139.54" gradientUnits="userSpaceOnUse"><stop offset="0.03" stop-color="#f8c9d6"/><stop offset="1" stop-color="#ed6d99"/></linearGradient><linearGradient id="Névtelen_színátmenet_23" x1="269.47" y1="178.74" x2="269.47" y2="133.5" gradientUnits="userSpaceOnUse"><stop offset="0.06" stop-color="#372a74"/><stop offset="1" stop-color="#9a367d"/></linearGradient><linearGradient id="Névtelen_színátmenet_29" x1="228.42" y1="162.98" x2="228.42" y2="147.88" gradientUnits="userSpaceOnUse"><stop offset="0" stop-color="#9a367d"/><stop offset="0.94" stop-color="#372a74"/></linearGradient><linearGradient id="Névtelen_színátmenet_32" x1="235.93" y1="159.14" x2="259.52" y2="159.14" gradientUnits="userSpaceOnUse"><stop offset="0" stop-color="#2a2a62"/><stop offset="1" stop-color="#1e2145"/></linearGradient><linearGradient id="Névtelen_színátmenet_32-2" x1="244.79" y1="159.14" x2="268.38" y2="159.14" xlink:href="#Névtelen_színátmenet_32"/><linearGradient id="Névtelen_színátmenet_32-3" x1="253.65" y1="159.14" x2="277.24" y2="159.14" xlink:href="#Névtelen_színátmenet_32"/><linearGradient id="Névtelen_színátmenet_32-4" x1="262.51" y1="159.14" x2="286.1" y2="159.14" xlink:href="#Névtelen_színátmenet_32"/><linearGradient id="Névtelen_színátmenet_32-5" x1="271.37" y1="159.14" x2="294.96" y2="159.14" xlink:href="#Névtelen_színátmenet_32"/><linearGradient id="Névtelen_színátmenet_32-6" x1="280.23" y1="159.14" x2="303.81" y2="159.14" xlink:href="#Névtelen_színátmenet_32"/><pattern id="Új_mintázatos_színtár_1" data-name="Új mintázatos színtár 1" width="38.25" height="55" patternUnits="userSpaceOnUse" viewBox="0 0 38.24 55"><rect class="cls-1" width="38.25" height="55"/><rect class="cls-2" width="38.25" height="55"/></pattern><pattern id="Új_mintázatos_színtár_1-3" data-name="Új mintázatos színtár 1" width="38.25" height="55" patternTransform="translate(-2.01 4.07)" patternUnits="userSpaceOnUse" viewBox="0 0 38.24 55"><rect class="cls-1" width="38.25" height="55"/><rect class="cls-2" width="38.25" height="55"/></pattern><linearGradient id="Névtelen_színátmenet_32-7" x1="278.58" y1="181.46" x2="278.58" y2="178.74" xlink:href="#Névtelen_színátmenet_32"/><linearGradient id="Névtelen_színátmenet_32-8" x1="219.19" y1="183.22" x2="219.19" y2="139.54" xlink:href="#Névtelen_színátmenet_32"/><linearGradient id="Névtelen_színátmenet_32-9" x1="208.62" y1="201.37" x2="336.31" y2="201.37" xlink:href="#Névtelen_színátmenet_32"/><pattern id="Új_mintázatos_színtár_1-5" data-name="Új mintázatos színtár 1" width="38.25" height="55" patternTransform="translate(17.54 77.28)" patternUnits="userSpaceOnUse" viewBox="0 0 38.24 55"><rect class="cls-1" width="38.25" height="55"/><rect class="cls-2" width="38.25" height="55"/></pattern><linearGradient id="Névtelen_színátmenet_57" x1="87.74" y1="235.19" x2="87.74" y2="187.49" gradientUnits="userSpaceOnUse"><stop offset="0" stop-color="#27275a"/><stop offset="1" stop-color="#2a2a62"/></linearGradient><linearGradient id="Névtelen_színátmenet_32-10" x1="223.54" y1="183.22" x2="223.54" y2="167.24" xlink:href="#Névtelen_színátmenet_32"/></defs><title>eezy_04</title><rect class="cls-3" width="335.99" height="235.19"/><path class="cls-4" d="M335.9,70.08c-.66-2.2-2.07-3.27-6-2.58A13.66,13.66,0,0,0,320,74.75a4.62,4.62,0,0,0-2.16-1.52,7.68,7.68,0,0,0-.11-1,8.73,8.73,0,0,0-9.28-7.08,22,22,0,0,0-15.89-20.68,23.43,23.43,0,0,0-28.77,15.14,22.09,22.09,0,0,0-.88,10,7.35,7.35,0,0,0-2.09,0,6.78,6.78,0,0,0-5.66,6.1,14.54,14.54,0,0,0-12.08,2.36,13.71,13.71,0,0,0-5,15.49,5.46,5.46,0,0,0-4,6.11c0,.2.09.39.14.58a2.84,2.84,0,0,0-.94,1.35,8.61,8.61,0,0,0-13.71,2.79l42.06,51.79h.1l2.2-9.75,2.1,9.32,8.9-.9,1.07-4.76,1,4.54,4.45-.45.1-.46.1.44,4.29-.43,1.19-5.27,1.14,5,3.72-.37.72-3.2.69,3,1.86-.18,3-13.4L301,150.81l3-13.38,2.45,10.86,3.12-13.85,2.6,11.49,3-13.23,2.63,11.64,3-13.08L324,145.75l2.31-10.23,1.58,7,4-17.73,2.91,12.89,1.1-4.89Z"/><path class="cls-5" d="M335.9,122.61a13.91,13.91,0,0,0-7.95,5,4.66,4.66,0,0,0-1.84-2c0-.31.07-.64.08-1a8.9,8.9,0,0,0-7.85-8.95,22.44,22.44,0,0,0-11.72-23.87,23.89,23.89,0,0,0-31.8,9.34,22.45,22.45,0,0,0-2.89,9.83,7.29,7.29,0,0,0-2.11-.37,6.9,6.9,0,0,0-6.88,5,14.84,14.84,0,0,0-12.55-.08A14,14,0,0,0,242.31,130a5.33,5.33,0,0,0-1.64.4l21.13,26,2.23-9.86L268,164l1.14,1.41,1.08-4.76,1.11,4.94,1.31.09,3.49-15.47,3.2,14.17,2.38-10.54,2.2,9.73,3.38-15,2.95,13.09L292.84,150l1.6,7.09,4-17.62L301,150.81l3-13.38,2.45,10.86,3.12-13.85,2.6,11.49,3-13.23,2.63,11.64,3-13.08L324,145.75l2.31-10.23,1.58,7,4-17.73,2.91,12.89,1.1-4.89Z"/><path id="_Csoport_" data-name="&lt;Csoport&gt;" class="cls-2" d="M207.16,29.9a.71.71,0,0,1,.59-.6l.1-2,.1,2a.71.71,0,0,1,.6.6l2,.1-2,.1a.69.69,0,0,1-.6.59l-.1,2-.1-2a.69.69,0,0,1-.59-.59L192.5,30Z"/><circle class="cls-2" cx="310.79" cy="61.47" r="0.57"/><circle class="cls-2" cx="278.18" cy="61.47" r="0.57"/><g id="snowflakes" class="cls-6"><g class="cls-6"><path class="cls-2" d="M268.27,68a.67.67,0,1,0-.66.65A.66.66,0,0,0,268.27,68Z"/><path class="cls-2" d="M211,56.37a.67.67,0,1,0-.67.65A.66.66,0,0,0,211,56.37Z"/><path class="cls-2" d="M133.83,72.26a.67.67,0,1,0-.67.65A.66.66,0,0,0,133.83,72.26Z"/><path class="cls-2" d="M180,76.51a.66.66,0,0,0-.67-.65.65.65,0,1,0,0,1.3A.66.66,0,0,0,180,76.51Z"/><path class="cls-2" d="M199.37,33a.66.66,0,0,0-.66-.65.65.65,0,1,0,0,1.3A.65.65,0,0,0,199.37,33Z"/><path class="cls-2" d="M245.56,37.22a.67.67,0,1,0-.66.65A.66.66,0,0,0,245.56,37.22Z"/><path class="cls-2" d="M306.5,50.14a.67.67,0,1,0-.67.65A.66.66,0,0,0,306.5,50.14Z"/><path class="cls-2" d="M148.79,51.05a.66.66,0,0,0-.67-.65.65.65,0,1,0,0,1.29A.66.66,0,0,0,148.79,51.05Z"/><path class="cls-2" d="M164.35,33.61a.67.67,0,1,0-.67.65A.67.67,0,0,0,164.35,33.61Z"/><path class="cls-2" d="M255.48,26.06a.66.66,0,1,0-.66.65A.65.65,0,0,0,255.48,26.06Z"/><path class="cls-2" d="M285.59,75.86a.67.67,0,1,0-.66.65A.66.66,0,0,0,285.59,75.86Z"/><path class="cls-2" d="M128.67,104.32a.65.65,0,0,0-.66-.64.66.66,0,0,0-.67.64.67.67,0,0,0,.67.66A.66.66,0,0,0,128.67,104.32Z"/><path class="cls-2" d="M98.59,78.13a.67.67,0,1,0-.66.65A.66.66,0,0,0,98.59,78.13Z"/></g><g class="cls-6"><path class="cls-2" d="M305.83,81.37a.67.67,0,1,0-.67.65A.66.66,0,0,0,305.83,81.37Z"/><path class="cls-2" d="M294.31,34.07a.67.67,0,1,0-.67.65A.66.66,0,0,0,294.31,34.07Z"/><path class="cls-2" d="M245.2,83a.67.67,0,1,0-.67.65A.66.66,0,0,0,245.2,83Z"/><path class="cls-2" d="M217.19,50a.67.67,0,1,0-.66.65A.66.66,0,0,0,217.19,50Z"/><path class="cls-2" d="M263.38,54.21a.67.67,0,1,0-.66.65A.66.66,0,0,0,263.38,54.21Z"/><path class="cls-2" d="M324.83,95.49a.66.66,0,0,0-.67-.65.65.65,0,1,0,0,1.3A.66.66,0,0,0,324.83,95.49Z"/><path class="cls-2" d="M232.15,28.74a.67.67,0,1,0-.66.65A.66.66,0,0,0,232.15,28.74Z"/><path class="cls-2" d="M247.71,11.31a.67.67,0,1,0-.66.65A.66.66,0,0,0,247.71,11.31Z"/><path class="cls-2" d="M50.38,29.21a.65.65,0,0,0-.66-.65.65.65,0,1,0,0,1.3A.65.65,0,0,0,50.38,29.21Z"/><path class="cls-2" d="M212,82a.66.66,0,0,0-.67-.65.65.65,0,1,0,0,1.3A.66.66,0,0,0,212,82Z"/><path class="cls-2" d="M182,55.83a.67.67,0,1,0-.67.65A.66.66,0,0,0,182,55.83Z"/><path class="cls-2" d="M191.58,10a.66.66,0,0,0-.67-.65.65.65,0,1,0,0,1.3A.66.66,0,0,0,191.58,10Z"/></g><g class="cls-6"><path class="cls-2" d="M155.94,75a.28.28,0,1,0-.28.27A.27.27,0,0,0,155.94,75Z"/><path class="cls-2" d="M120.52,44.85a.27.27,0,0,0-.28-.27.27.27,0,1,0,0,.54A.27.27,0,0,0,120.52,44.85Z"/><path class="cls-2" d="M92.2,93.18a.28.28,0,1,0-.28.27A.27.27,0,0,0,92.2,93.18Z"/><ellipse class="cls-2" cx="217.98" cy="83.65" rx="0.28" ry="0.27"/><path class="cls-2" d="M177.08,48.78a.28.28,0,1,0-.28.28A.28.28,0,0,0,177.08,48.78Z"/><path class="cls-2" d="M63.89,38.2a.28.28,0,0,0-.28-.27.28.28,0,1,0,0,.55A.29.29,0,0,0,63.89,38.2Z"/><path class="cls-2" d="M124,90.08a.28.28,0,1,0-.28.28A.28.28,0,0,0,124,90.08Z"/><path class="cls-2" d="M7,59.07a.28.28,0,0,0-.28-.28.28.28,0,1,0,0,.55A.28.28,0,0,0,7,59.07Z"/><path class="cls-2" d="M21.61,21.75a.28.28,0,1,0-.28.27A.27.27,0,0,0,21.61,21.75Z"/><path class="cls-2" d="M293.89,35.45a.28.28,0,1,0-.28.27A.28.28,0,0,0,293.89,35.45Z"/><path class="cls-2" d="M327.27,106.54a.28.28,0,1,0-.27.27A.27.27,0,0,0,327.27,106.54Z"/><path class="cls-2" d="M181.29,85.52a.28.28,0,0,0-.28-.27.27.27,0,1,0,0,.54A.28.28,0,0,0,181.29,85.52Z"/><path class="cls-2" d="M237.71,12.08a.27.27,0,0,0-.28-.27.27.27,0,1,0,0,.54A.27.27,0,0,0,237.71,12.08Z"/><path class="cls-2" d="M204.65,43.46a.27.27,0,0,0-.28-.27.27.27,0,1,0,0,.54A.27.27,0,0,0,204.65,43.46Z"/><path class="cls-2" d="M243.69,45.39a.27.27,0,0,0-.28-.27.27.27,0,1,0,0,.54A.27.27,0,0,0,243.69,45.39Z"/><path class="cls-2" d="M248.23,80.28a.28.28,0,1,0-.28.27A.28.28,0,0,0,248.23,80.28Z"/><path class="cls-2" d="M143.92,24.08a.28.28,0,1,0-.28.27A.28.28,0,0,0,143.92,24.08Z"/><path class="cls-2" d="M81.48,17.82a.27.27,0,0,0-.28-.27.27.27,0,1,0,0,.54A.27.27,0,0,0,81.48,17.82Z"/><path class="cls-2" d="M167.05,87.38a.28.28,0,0,0-.28-.27.27.27,0,1,0,0,.54A.28.28,0,0,0,167.05,87.38Z"/></g><g class="cls-6"><path class="cls-2" d="M104.76,74a.28.28,0,0,0-.56,0,.28.28,0,0,0,.56,0Z"/><path class="cls-2" d="M69.34,43.83a.28.28,0,1,0-.28.27A.28.28,0,0,0,69.34,43.83Z"/><path class="cls-2" d="M41,92.17a.28.28,0,1,0-.28.27A.28.28,0,0,0,41,92.17Z"/><path class="cls-2" d="M167.08,82.63a.28.28,0,0,0-.28-.27.27.27,0,1,0,0,.54A.28.28,0,0,0,167.08,82.63Z"/><path class="cls-2" d="M125.89,47.77a.28.28,0,1,0-.28.27A.27.27,0,0,0,125.89,47.77Z"/><path class="cls-2" d="M12.7,37.19a.28.28,0,1,0-.28.27A.27.27,0,0,0,12.7,37.19Z"/><path class="cls-2" d="M242.71,34.43a.28.28,0,0,0-.28-.27.27.27,0,1,0,0,.54A.28.28,0,0,0,242.71,34.43Z"/><path class="cls-2" d="M276.09,105.52a.27.27,0,0,0-.28-.27.28.28,0,0,0-.28.27.29.29,0,0,0,.28.28A.28.28,0,0,0,276.09,105.52Z"/><path class="cls-2" d="M130.1,84.5a.28.28,0,0,0-.56,0,.28.28,0,0,0,.56,0Z"/><path class="cls-2" d="M186.53,11.07a.28.28,0,1,0-.28.27A.28.28,0,0,0,186.53,11.07Z"/><path class="cls-2" d="M153.47,42.44a.28.28,0,0,0-.28-.27.27.27,0,0,0-.28.27.28.28,0,0,0,.28.28A.29.29,0,0,0,153.47,42.44Z"/><path class="cls-2" d="M192.51,44.38a.28.28,0,1,0-.28.27A.29.29,0,0,0,192.51,44.38Z"/><path class="cls-2" d="M197,79.27a.28.28,0,1,0-.27.27A.27.27,0,0,0,197,79.27Z"/><path class="cls-2" d="M92.73,23.06a.28.28,0,1,0-.28.27A.27.27,0,0,0,92.73,23.06Z"/><path class="cls-2" d="M30.3,16.8a.28.28,0,0,0-.56,0,.28.28,0,0,0,.56,0Z"/><path class="cls-2" d="M279.39,46.48a.28.28,0,0,0-.28-.27.28.28,0,0,0-.28.27.27.27,0,0,0,.28.28A.28.28,0,0,0,279.39,46.48Z"/><path class="cls-2" d="M300.56,69.53a.28.28,0,1,0-.28.27A.28.28,0,0,0,300.56,69.53Z"/><path class="cls-2" d="M115.86,86.37a.28.28,0,1,0-.55,0,.28.28,0,0,0,.55,0Z"/></g></g><circle class="cls-2" cx="316.71" cy="24.09" r="0.57"/><circle class="cls-2" cx="253.19" cy="99.62" r="0.57"/><circle class="cls-2" cx="253.19" cy="8.22" r="0.57"/><circle class="cls-2" cx="307.26" cy="8.22" r="0.57"/><circle class="cls-2" cx="222.48" cy="73.11" r="0.57"/><path id="star" class="cls-2" d="M226.63,77.32a.7.7,0,0,1,.6-.6l.1-2.08.11,2.07a.72.72,0,0,1,.6.61l2.08.1-2.08.1a.7.7,0,0,1-.6.61l-.1,2.08-.11-2.08a.7.7,0,0,1-.6-.61l-2.08-.1Z"/><path id="star-2" data-name="star" class="cls-2" d="M286.62,29.74a.71.71,0,0,1,.61-.6l.1-2.08.1,2.08a.71.71,0,0,1,.61.6l2.08.11L288,30a.71.71,0,0,1-.61.6l-.1,2.08-.1-2.08a.71.71,0,0,1-.61-.6l-2.07-.1Z"/><circle class="cls-2" cx="126.18" cy="30.43" r="0.57"/><circle class="cls-2" cx="58.52" cy="61.47" r="0.57"/><circle class="cls-2" cx="19.99" cy="24.09" r="0.57"/><circle class="cls-2" cx="37.92" cy="99.62" r="0.57"/><circle class="cls-2" cx="83.51" cy="50.41" r="0.57"/><circle class="cls-2" cx="83.51" cy="8.22" r="0.57"/><circle class="cls-2" cx="119.56" cy="99.62" r="0.57"/><circle class="cls-2" cx="114.22" cy="73.11" r="0.57"/><path id="star-3" data-name="star" class="cls-2" d="M110.07,77.32a.71.71,0,0,0-.61-.6l-.1-2.08-.1,2.07a.73.73,0,0,0-.61.61l-2.08.1,2.08.1a.71.71,0,0,0,.61.61l.1,2.08.1-2.08a.71.71,0,0,0,.61-.61l2.07-.1Z"/><path id="star-4" data-name="star" class="cls-2" d="M167.63,19.81a.7.7,0,0,0-.61-.6l-.1-2.08-.1,2.08a.7.7,0,0,0-.6.6l-2.08.1,2.08.1a.7.7,0,0,0,.6.61l.1,2.08.1-2.08a.7.7,0,0,0,.61-.61l2.08-.1Z"/><path id="star-5" data-name="star" class="cls-2" d="M50.07,29.74a.7.7,0,0,0-.6-.6l-.1-2.08-.11,2.08a.7.7,0,0,0-.6.6l-2.08.11,2.08.1a.7.7,0,0,0,.6.6l.1,2.08.11-2.08a.7.7,0,0,0,.6-.6l2.08-.1Z"/><g id="snowflakes-2" data-name="snowflakes" class="cls-7"><g class="cls-6"><path class="cls-2" d="M109.81,95.91a.67.67,0,1,1,.67.65A.66.66,0,0,1,109.81,95.91Z"/><path class="cls-2" d="M64,60.19a.67.67,0,1,1,.67.65A.66.66,0,0,1,64,60.19Z"/><path class="cls-2" d="M121.33,48.61a.67.67,0,1,1,.66.65A.66.66,0,0,1,121.33,48.61Z"/><path class="cls-2" d="M198.45,64.5a.67.67,0,1,1,.66.65A.66.66,0,0,1,198.45,64.5Z"/><path class="cls-2" d="M152.26,68.75a.67.67,0,1,1,.66.65A.66.66,0,0,1,152.26,68.75Z"/><path class="cls-2" d="M132.9,25.2a.66.66,0,0,1,.67-.65.65.65,0,1,1,0,1.3A.66.66,0,0,1,132.9,25.2Z"/><path class="cls-2" d="M86.72,29.46a.65.65,0,0,1,.66-.65.65.65,0,1,1,0,1.29A.65.65,0,0,1,86.72,29.46Z"/><path class="cls-2" d="M25.78,42.38a.67.67,0,1,1,.66.65A.66.66,0,0,1,25.78,42.38Z"/><path class="cls-2" d="M90.81,110a.67.67,0,0,1,1.33,0,.67.67,0,0,1-1.33,0Z"/><path class="cls-2" d="M222.21,124.67a.67.67,0,1,1,.66.65A.66.66,0,0,1,222.21,124.67Z"/><path class="cls-2" d="M176,128.92a.67.67,0,1,1,.66.65A.66.66,0,0,1,176,128.92Z"/><path class="cls-2" d="M183.49,43.28a.67.67,0,1,1,.66.65A.66.66,0,0,1,183.49,43.28Z"/><path class="cls-2" d="M167.93,25.85a.67.67,0,1,1,.66.65A.66.66,0,0,1,167.93,25.85Z"/><path class="cls-2" d="M76.79,18.3a.67.67,0,1,1,.67.64A.66.66,0,0,1,76.79,18.3Z"/><path class="cls-2" d="M46.68,68.1a.67.67,0,1,1,.67.65A.66.66,0,0,1,46.68,68.1Z"/><path class="cls-2" d="M203.6,96.56a.67.67,0,1,1,.67.65A.66.66,0,0,1,203.6,96.56Z"/><path class="cls-2" d="M233.69,70.37a.66.66,0,1,1,.66.65A.65.65,0,0,1,233.69,70.37Z"/><path class="cls-2" d="M224.06,24.55a.66.66,0,0,1,.67-.65.65.65,0,1,1,0,1.3A.66.66,0,0,1,224.06,24.55Z"/><path class="cls-2" d="M52.3,111.34A.67.67,0,1,1,53,112,.66.66,0,0,1,52.3,111.34Z"/></g><g class="cls-6"><path class="cls-2" d="M26.44,73.61a.67.67,0,1,1,.67.65A.67.67,0,0,1,26.44,73.61Z"/><path class="cls-2" d="M38,26.3a.66.66,0,0,1,.66-.65.65.65,0,1,1,0,1.3A.65.65,0,0,1,38,26.3Z"/><path class="cls-2" d="M87.08,75.27a.67.67,0,1,1,.66.65A.66.66,0,0,1,87.08,75.27Z"/><path class="cls-2" d="M115.08,42.19a.67.67,0,1,1,.67.65A.66.66,0,0,1,115.08,42.19Z"/><path class="cls-2" d="M68.89,46.44a.67.67,0,1,1,.67.65A.66.66,0,0,1,68.89,46.44Z"/><path class="cls-2" d="M49.54,2.9a.67.67,0,1,1,.67.65A.66.66,0,0,1,49.54,2.9Z"/><path class="cls-2" d="M53.64,83.48a.67.67,0,1,1,.66.65A.66.66,0,0,1,53.64,83.48Z"/><path class="cls-2" d="M7.45,87.73a.67.67,0,1,1,.66.65A.66.66,0,0,1,7.45,87.73Z"/><path class="cls-2" d="M92.65,106.62a.67.67,0,1,1,.67.65A.66.66,0,0,1,92.65,106.62Z"/><path class="cls-2" d="M100.13,21a.67.67,0,1,1,.66.65A.66.66,0,0,1,100.13,21Z"/><path class="cls-2" d="M84.56,3.55a.67.67,0,1,1,.67.65A.66.66,0,0,1,84.56,3.55Z"/><path class="cls-2" d="M281.89,21.45a.67.67,0,1,1,.67.65A.66.66,0,0,1,281.89,21.45Z"/><path class="cls-2" d="M284.37,85.82a.65.65,0,0,1,.66-.64.65.65,0,1,1,0,1.29A.64.64,0,0,1,284.37,85.82Z"/><path class="cls-2" d="M51.78,103.84a.67.67,0,1,1,.67.65A.66.66,0,0,1,51.78,103.84Z"/><path class="cls-2" d="M120.24,74.26a.67.67,0,1,1,.66.65A.66.66,0,0,1,120.24,74.26Z"/><path class="cls-2" d="M150.32,48.07a.67.67,0,1,1,.67.65A.66.66,0,0,1,150.32,48.07Z"/><path class="cls-2" d="M140.7,2.25a.67.67,0,1,1,.66.65A.66.66,0,0,1,140.7,2.25Z"/></g><g class="cls-6"><path class="cls-2" d="M176.34,67.27a.28.28,0,1,1,.27.27A.27.27,0,0,1,176.34,67.27Z"/><path class="cls-2" d="M211.76,37.09a.28.28,0,1,1,.27.27A.28.28,0,0,1,211.76,37.09Z"/><path class="cls-2" d="M240.07,85.42a.28.28,0,0,1,.28-.27.27.27,0,1,1,0,.54A.28.28,0,0,1,240.07,85.42Z"/><path class="cls-2" d="M171.89,117.91a.27.27,0,0,1,.28-.27.27.27,0,1,1,0,.54A.27.27,0,0,1,171.89,117.91Z"/><ellipse class="cls-2" cx="114.29" cy="75.88" rx="0.28" ry="0.27"/><path class="cls-2" d="M155.2,41a.27.27,0,0,1,.28-.27.27.27,0,1,1,0,.54A.27.27,0,0,1,155.2,41Z"/><path class="cls-2" d="M268.39,30.44a.28.28,0,1,1,.28.27A.28.28,0,0,1,268.39,30.44Z"/><path class="cls-2" d="M208.3,82.32a.28.28,0,1,1,.27.27A.27.27,0,0,1,208.3,82.32Z"/><path class="cls-2" d="M325.3,51.3a.28.28,0,0,1,.56,0,.28.28,0,1,1-.56,0Z"/><path class="cls-2" d="M310.66,14a.28.28,0,0,1,.28-.27.27.27,0,1,1,0,.54A.28.28,0,0,1,310.66,14Z"/><path class="cls-2" d="M38.39,27.69a.28.28,0,1,1,.55,0,.28.28,0,0,1-.55,0Z"/><path class="cls-2" d="M5,98.78a.27.27,0,0,1,.28-.27.27.27,0,1,1,0,.54A.27.27,0,0,1,5,98.78Z"/><path class="cls-2" d="M151,77.76a.28.28,0,1,1,.28.27A.28.28,0,0,1,151,77.76Z"/><path class="cls-2" d="M94.57,4.32a.28.28,0,1,1,.28.27A.27.27,0,0,1,94.57,4.32Z"/><path class="cls-2" d="M127.63,35.7a.28.28,0,1,1,.55,0,.28.28,0,0,1-.55,0Z"/><path class="cls-2" d="M141,105.28a.28.28,0,0,1,.28-.27.28.28,0,1,1,0,.55A.28.28,0,0,1,141,105.28Z"/><path class="cls-2" d="M92.57,111.06a.28.28,0,1,1,.28.27A.28.28,0,0,1,92.57,111.06Z"/><path class="cls-2" d="M88.58,37.63a.28.28,0,0,1,.28-.27.27.27,0,1,1,0,.54A.28.28,0,0,1,88.58,37.63Z"/><path class="cls-2" d="M84.05,72.52a.28.28,0,1,1,.28.27A.28.28,0,0,1,84.05,72.52Z"/><path class="cls-2" d="M188.36,16.32a.28.28,0,0,1,.28-.28.28.28,0,1,1,0,.55A.28.28,0,0,1,188.36,16.32Z"/><path class="cls-2" d="M250.8,10.06a.28.28,0,1,1,.28.27A.27.27,0,0,1,250.8,10.06Z"/><path class="cls-2" d="M16.11,113.34a.28.28,0,0,1,.28-.27.27.27,0,1,1,0,.54A.28.28,0,0,1,16.11,113.34Z"/><path class="cls-2" d="M61.55,120a.27.27,0,0,1,.28-.27.28.28,0,0,1,.28.27.29.29,0,0,1-.28.28A.28.28,0,0,1,61.55,120Z"/><path class="cls-2" d="M253.44,119.76a.28.28,0,1,1,.28.27A.28.28,0,0,1,253.44,119.76Z"/><path class="cls-2" d="M284.51,101.15a.28.28,0,1,1,.28.27A.28.28,0,0,1,284.51,101.15Z"/><path class="cls-2" d="M300.6,117.91a.28.28,0,0,1,.28-.27.27.27,0,1,1,0,.54A.28.28,0,0,1,300.6,117.91Z"/><path class="cls-2" d="M165.23,79.62a.28.28,0,1,1,.28.27A.28.28,0,0,1,165.23,79.62Z"/></g><g class="cls-6"><path class="cls-2" d="M227.52,66.25a.28.28,0,0,1,.55,0,.28.28,0,1,1-.55,0Z"/><path class="cls-2" d="M262.94,36.07a.28.28,0,1,1,.28.27A.27.27,0,0,1,262.94,36.07Z"/><path class="cls-2" d="M291.26,84.4a.28.28,0,0,1,.55,0,.28.28,0,1,1-.55,0Z"/><path class="cls-2" d="M223.07,116.89a.28.28,0,1,1,.28.27A.28.28,0,0,1,223.07,116.89Z"/><path class="cls-2" d="M165.2,74.87a.28.28,0,1,1,.28.27A.28.28,0,0,1,165.2,74.87Z"/><path class="cls-2" d="M206.38,40a.28.28,0,0,1,.28-.27.27.27,0,1,1,0,.54A.28.28,0,0,1,206.38,40Z"/><path class="cls-2" d="M319.57,29.43a.28.28,0,0,1,.56,0,.28.28,0,0,1-.56,0Z"/><path class="cls-2" d="M259.48,81.31a.28.28,0,1,1,.28.27A.28.28,0,0,1,259.48,81.31Z"/><path class="cls-2" d="M89.57,26.67a.28.28,0,1,1,.28.27A.28.28,0,0,1,89.57,26.67Z"/><path class="cls-2" d="M56.18,97.76a.28.28,0,0,1,.28-.27.27.27,0,1,1,0,.54A.28.28,0,0,1,56.18,97.76Z"/><path class="cls-2" d="M202.17,76.74a.28.28,0,0,1,.28-.27.27.27,0,1,1,0,.54A.28.28,0,0,1,202.17,76.74Z"/><path class="cls-2" d="M145.75,3.3A.28.28,0,0,1,146,3a.28.28,0,1,1,0,.55A.28.28,0,0,1,145.75,3.3Z"/><path class="cls-2" d="M178.81,34.68a.27.27,0,0,1,.28-.27.27.27,0,1,1,0,.54A.27.27,0,0,1,178.81,34.68Z"/><path class="cls-2" d="M192.14,104.27a.28.28,0,1,1,.28.27A.28.28,0,0,1,192.14,104.27Z"/><path class="cls-2" d="M143.76,110a.28.28,0,1,1,.27.27A.27.27,0,0,1,143.76,110Z"/><path class="cls-2" d="M139.77,36.61a.27.27,0,0,1,.28-.27.27.27,0,1,1,0,.54A.27.27,0,0,1,139.77,36.61Z"/><path class="cls-2" d="M135.23,71.51a.28.28,0,1,1,.28.27A.29.29,0,0,1,135.23,71.51Z"/><path class="cls-2" d="M239.54,15.3a.28.28,0,1,1,.28.27A.28.28,0,0,1,239.54,15.3Z"/><path class="cls-2" d="M302,9a.28.28,0,1,1,.28.27A.28.28,0,0,1,302,9Z"/><path class="cls-2" d="M52.89,38.72a.27.27,0,0,1,.28-.27.27.27,0,1,1,0,.54A.27.27,0,0,1,52.89,38.72Z"/><path class="cls-2" d="M31.72,61.77A.28.28,0,1,1,32,62,.28.28,0,0,1,31.72,61.77Z"/><path class="cls-2" d="M67.3,112.32a.28.28,0,0,1,.55,0,.28.28,0,1,1-.55,0Z"/><path class="cls-2" d="M112.73,119a.28.28,0,1,1,.28.27A.28.28,0,0,1,112.73,119Z"/><path class="cls-2" d="M304.62,118.75a.28.28,0,1,1,.28.27A.28.28,0,0,1,304.62,118.75Z"/><path class="cls-2" d="M216.41,78.6a.28.28,0,0,1,.29-.27.27.27,0,0,1,0,.54A.28.28,0,0,1,216.41,78.6Z"/></g><g class="cls-6"><path class="cls-2" d="M129.81,143.44a.67.67,0,1,1,.67.65A.66.66,0,0,1,129.81,143.44Z"/><path class="cls-2" d="M83.62,147.69a.67.67,0,0,1,1.33,0,.67.67,0,0,1-1.33,0Z"/><path class="cls-2" d="M22.69,160.62a.65.65,0,0,1,.66-.65.65.65,0,1,1,0,1.3A.65.65,0,0,1,22.69,160.62Z"/><path class="cls-2" d="M180.39,161.52a.67.67,0,1,1,.67.65A.66.66,0,0,1,180.39,161.52Z"/><path class="cls-2" d="M73.69,136.54a.67.67,0,1,1,.67.65A.67.67,0,0,1,73.69,136.54Z"/><path class="cls-2" d="M221,142.79a.67.67,0,1,1,.66.65A.66.66,0,0,1,221,142.79Z"/></g><g class="cls-6"><path class="cls-2" d="M34.87,144.55a.67.67,0,1,1,.67.65A.66.66,0,0,1,34.87,144.55Z"/><path class="cls-2" d="M112,160.43a.67.67,0,1,1,.67.65A.66.66,0,0,1,112,160.43Z"/><path class="cls-2" d="M65.8,164.68a.67.67,0,0,1,1.33,0,.67.67,0,0,1-1.33,0Z"/><path class="cls-2" d="M46.44,121.14a.67.67,0,1,1,.67.65A.66.66,0,0,1,46.44,121.14Z"/><path class="cls-2" d="M97,139.22a.66.66,0,0,1,.67-.65.65.65,0,1,1,0,1.3A.66.66,0,0,1,97,139.22Z"/><path class="cls-2" d="M81.47,121.79a.67.67,0,1,1,.67.65A.66.66,0,0,1,81.47,121.79Z"/><path class="cls-2" d="M278.8,139.69a.67.67,0,1,1,.66.65A.66.66,0,0,1,278.8,139.69Z"/><path class="cls-2" d="M137.61,120.49a.66.66,0,1,1,.66.65A.65.65,0,0,1,137.61,120.49Z"/></g><g class="cls-6"><path class="cls-2" d="M208.66,155.33a.27.27,0,0,1,.28-.27.27.27,0,1,1,0,.54A.27.27,0,0,1,208.66,155.33Z"/><path class="cls-2" d="M152.11,159.26a.28.28,0,1,1,.27.27A.27.27,0,0,1,152.11,159.26Z"/><path class="cls-2" d="M265.3,148.68a.28.28,0,1,1,.28.27A.27.27,0,0,1,265.3,148.68Z"/><path class="cls-2" d="M307.57,132.23a.28.28,0,1,1,.28.27A.28.28,0,0,1,307.57,132.23Z"/><path class="cls-2" d="M35.29,145.92a.28.28,0,0,1,.28-.27.28.28,0,0,1,.28.27.27.27,0,0,1-.28.28A.28.28,0,0,1,35.29,145.92Z"/><path class="cls-2" d="M91.47,122.56a.28.28,0,1,1,.28.27A.28.28,0,0,1,91.47,122.56Z"/><path class="cls-2" d="M124.53,153.94a.28.28,0,1,1,.28.27A.28.28,0,0,1,124.53,153.94Z"/><path class="cls-2" d="M85.49,155.87a.28.28,0,1,1,.28.27A.28.28,0,0,1,85.49,155.87Z"/><path class="cls-2" d="M185.27,134.56a.28.28,0,1,1,.55,0,.28.28,0,0,1-.55,0Z"/><path class="cls-2" d="M247.7,128.3a.28.28,0,1,1,.28.27A.28.28,0,0,1,247.7,128.3Z"/></g><g class="cls-6"><path class="cls-2" d="M259.84,154.31a.28.28,0,0,1,.28-.27.27.27,0,1,1,0,.54A.28.28,0,0,1,259.84,154.31Z"/><path class="cls-2" d="M203.29,158.25a.27.27,0,0,1,.28-.27.27.27,0,1,1,0,.54A.27.27,0,0,1,203.29,158.25Z"/><path class="cls-2" d="M316.48,147.67a.28.28,0,1,1,.56,0,.28.28,0,0,1-.56,0Z"/><path class="cls-2" d="M86.48,144.91a.28.28,0,1,1,.28.27A.27.27,0,0,1,86.48,144.91Z"/><path class="cls-2" d="M142.65,121.55a.29.29,0,0,1,.29-.28.28.28,0,0,1,0,.55A.29.29,0,0,1,142.65,121.55Z"/><path class="cls-2" d="M175.71,152.92a.28.28,0,0,1,.28-.27.27.27,0,1,1,0,.54A.28.28,0,0,1,175.71,152.92Z"/><path class="cls-2" d="M136.67,154.85a.28.28,0,0,1,.28-.27.27.27,0,0,1,.28.27.28.28,0,0,1-.28.28A.29.29,0,0,1,136.67,154.85Z"/><path class="cls-2" d="M236.45,133.54a.28.28,0,1,1,.28.27A.28.28,0,0,1,236.45,133.54Z"/><path class="cls-2" d="M298.88,127.28a.28.28,0,0,1,.28-.27.27.27,0,1,1,0,.54A.28.28,0,0,1,298.88,127.28Z"/><path class="cls-2" d="M49.8,157a.28.28,0,0,1,.55,0,.28.28,0,1,1-.55,0Z"/></g></g><polygon class="cls-8" points="42.79 184 162.69 34.33 177.56 87.03 162.22 87.03 191.96 200.87 28.38 200.87 42.79 184"/><polygon class="cls-9" points="162.69 34.33 297.92 200.87 191.96 200.87 162.22 87.03 177.56 87.03 162.69 34.33"/><path class="cls-10" d="M334.8,137.66l-2.91-12.89-4,17.73-1.58-7L324,145.75l-3.27-14.49-3,13.08-2.63-11.64-3,13.23-2.6-11.49-3.12,13.85L304,137.43l-3,13.38-2.55-11.32-4,17.62-1.6-7.09-2.63,11.63-2.95-13.09-3.38,15-2.2-9.73-2.38,10.54-3.2-14.17L272,168.51l-1.78-7.88-1.49,6.59L264,146.53l-3.75,16.62-2.41-10.66-3.18,14.09-3-13.19-3.37,14.91-2.79-12.36-2.85,12.64-3.31-14.64-2,8.91-4.15-18.36-3.19,14.14-3-13.14-3.42,15.12-2.74-12.16L218.77,158l-4-17.58-4.58,20.29L209,155.34l-1.57,6.95-4.23-18.71-3.12,13.82-2.67-11.84L193.72,162l-2.09-9.26-2.81,12.43-3-13.23-4.34,19.25L180,164.76l-2.52,11.18-3.64-16.12-2.5,11-2.93-13-.26,1.16-.26-1.16-2.93,13-2.5-11-3.64,16.12-2.52-11.18-1.45,6.41-4.35-19.25-3,13.23-2.81-12.43L142.66,162,139,145.56l-2.68,11.84-3.12-13.82-4.22,18.71-1.57-6.95-1.21,5.38-4.58-20.29-4,17.58-2.16-9.56-2.74,12.16-3.42-15.12-3,13.14-3.2-14.14L99,162.85l-2-8.91-3.31,14.64-2.85-12.64L88,168.3l-3.37-14.91-3,13.19L78.5,152.49l-2.4,10.66-3.75-16.62-4.67,20.69-1.49-6.59-1.78,7.88-4.13-18.32-3.2,14.17L54.7,153.82l-2.2,9.73-3.38-15-3,13.09L43.54,150l-1.6,7.09-4-17.62L35.4,150.81l-3-13.38-2.45,10.86L26.8,134.44l-2.59,11.49-3-13.23L18.6,144.34l-3-13.08-3.27,14.49-2.31-10.23-1.58,7-4-17.73L1.58,137.66l-1.58-7V235.19H336.38V130.65Zm-126,29.47-.13.54-.12-.54Zm-80.93,0-.13.54-.12-.54Z"/><path class="cls-11" d="M336.56,235.19l-.77-71c-113.4-5.73-217.18,64.71-217.18,71Z"/><path class="cls-11" d="M336.56,235.19l-.77-71c-113.4-5.73-217.18,64.71-217.18,71Z"/><circle class="cls-12" cx="64.96" cy="61.99" r="22.53"/><polygon class="cls-13" points="208.62 186.41 208.62 178.44 228.31 139.54 251.27 178.74 251.27 186.41 208.62 186.41"/><polygon class="cls-14" points="208.62 178.44 205.16 178.44 228.31 133.5 228.31 139.54 208.62 178.44"/><rect class="cls-14" x="251.27" y="178.74" width="54.61" height="7.68"/><polygon class="cls-15" points="228.31 133.5 282.59 133.5 310.63 178.62 251.27 178.74 228.31 139.54 228.31 133.5"/><rect class="cls-16" x="208.62" y="183.22" width="42.66" height="3.2"/><rect class="cls-10" x="222.49" y="167.24" width="10.97" height="15.98"/><polygon class="cls-17" points="220.76 162.97 236.09 162.97 228.31 147.88 220.76 162.97"/><polygon class="cls-18" points="258.35 178.74 235.93 139.54 237.09 139.54 259.52 178.74 258.35 178.74"/><polygon class="cls-19" points="267.21 178.74 244.79 139.54 245.95 139.54 268.38 178.74 267.21 178.74"/><polygon class="cls-20" points="276.07 178.74 253.65 139.54 254.81 139.54 277.24 178.74 276.07 178.74"/><polygon class="cls-21" points="284.93 178.74 262.51 139.54 263.67 139.54 286.1 178.74 284.93 178.74"/><polygon class="cls-22" points="293.79 178.74 271.37 139.54 272.53 139.54 294.96 178.74 293.79 178.74"/><polygon class="cls-23" points="302.64 178.74 280.23 139.54 281.39 139.54 303.81 178.74 302.64 178.74"/><rect class="cls-24" x="280.23" y="129.5" width="6.42" height="10.04"/><polygon class="cls-16" points="280.23 139.54 278.84 136.72 278.84 129.5 280.23 129.5 280.23 139.54"/><rect class="cls-25" x="277.24" y="127.91" width="11.08" height="1.59"/><rect class="cls-14" x="220.76" y="183.22" width="14.82" height="3.2"/><polygon class="cls-26" points="227.45 149.59 234.04 162.97 232.13 162.97 226.6 151.29 227.45 149.59"/><polygon class="cls-27" points="225.44 153.66 229.77 162.97 227.86 162.97 224.59 155.36 225.44 153.66"/><rect class="cls-28" x="251.27" y="178.74" width="54.61" height="2.72"/><polygon class="cls-29" points="228.31 139.54 208.62 178.44 208.62 183.22 211.69 183.22 211.62 178.44 229.77 142.03 228.31 139.54"/><polygon class="cls-30" points="208.62 186.41 289.85 216.32 335.99 216.32 336.31 196.85 305.88 186.41 208.62 186.41"/><polygon class="cls-31" points="161.6 50.05 86.3 144.05 164.66 60.6 102.88 145.61 162.22 87.03 177.56 87.03 162.69 34.33 83.24 133.5 161.6 50.05"/><path class="cls-32" d="M216.16,233.35l-.95.87c-.38.24-.78.48-1.18.71a5.55,5.55,0,0,0,2.69-.28l-.66.54H245.6l-.66-.54a5.55,5.55,0,0,0,2.69.28c-.41-.23-.8-.47-1.18-.71l-.95-.87a6.84,6.84,0,0,0,3.36.4c-.66-.34-1.28-.7-1.89-1.07l.15,0c-.34-.19-.66-.39-1-.58a4.14,4.14,0,0,0,.64-.06l-1.28-1.18a6.79,6.79,0,0,0,3.36.41c-.66-.34-1.29-.7-1.9-1.07l.16,0c-.49-.27-1-.56-1.41-.85a6.74,6.74,0,0,0,3.15.35c-.66-.34-1.29-.7-1.9-1.07l.16,0a28.68,28.68,0,0,1-2.89-1.87,1.64,1.64,0,0,0,.32,0c-.68-.38-1.31-.79-1.92-1.21l.15,0-.23-.21-.44-.45-.11-.18a6.2,6.2,0,0,0,2,.3,4.37,4.37,0,0,0,1.28,0l-1.16-1.16a5.76,5.76,0,0,0,3,.4,28.46,28.46,0,0,1-2.68-1.7,4.3,4.3,0,0,0,.8,0l-1.16-1.16a5.76,5.76,0,0,0,3,.4,29,29,0,0,1-2.91-1.87l-.13-.13a5.76,5.76,0,0,0,3,.4,29.68,29.68,0,0,1-4.7-3.29l.17,0-.94-.95a4.67,4.67,0,0,0,2.48.33,25.08,25.08,0,0,1-2.92-1.94,3.81,3.81,0,0,0,1.38,0l-.94-.94a4.71,4.71,0,0,0,2.48.32c-.55-.31-1.07-.63-1.57-1h0l-.94-.94a4.71,4.71,0,0,0,2.48.32,24.56,24.56,0,0,1-4-2.82,3.68,3.68,0,0,0,1.74.18,20.2,20.2,0,0,1-3.35-2.37,3.29,3.29,0,0,0,2.07.37l-.78-.79a3.91,3.91,0,0,0,2.06.27,18.07,18.07,0,0,1-1.66-1,2.75,2.75,0,0,0,.38,0l-.78-.78a3.91,3.91,0,0,0,2.06.27,20.2,20.2,0,0,1-5.22-4.21,2.47,2.47,0,0,0,1.5.25l-.59-.59a2.82,2.82,0,0,0,1.54.2,15,15,0,0,1-1.88-1.25,2.46,2.46,0,0,0,.93,0l-.59-.59a3,3,0,0,0,1.54.2,15.8,15.8,0,0,1-2.35-1.64h.09l-.41-.26a16.06,16.06,0,0,1-1.84-2,1.93,1.93,0,0,0,.48.08l-.27-.43a1.79,1.79,0,0,0,1.35.34l-.43-.43a2,2,0,0,0,1.12.15,11.27,11.27,0,0,1-1.78-1.25l-.26-.41a1.79,1.79,0,0,0,1.35.34l-.43-.43a2.16,2.16,0,0,0,1.12.15c-5.15-2.9-5.94-8.71-6-9.32h0c-.06.61-.85,6.42-6,9.32a2.16,2.16,0,0,0,1.12-.15l-.43.43a1.79,1.79,0,0,0,1.35-.34l-.26.41a11.27,11.27,0,0,1-1.78,1.25,2,2,0,0,0,1.12-.15l-.43.43a1.79,1.79,0,0,0,1.35-.34l-.27.43a1.93,1.93,0,0,0,.48-.08,16.06,16.06,0,0,1-1.84,2l-.41.26h.08a14.82,14.82,0,0,1-2.35,1.64,3,3,0,0,0,1.55-.2l-.59.59a2.46,2.46,0,0,0,.93,0,14.39,14.39,0,0,1-1.89,1.25,2.86,2.86,0,0,0,1.55-.2l-.59.59A2.47,2.47,0,0,0,225,201a20.2,20.2,0,0,1-5.22,4.21,3.91,3.91,0,0,0,2.06-.27l-.78.78a2.75,2.75,0,0,0,.38,0,18.07,18.07,0,0,1-1.66,1,3.91,3.91,0,0,0,2.06-.27l-.78.79a3.29,3.29,0,0,0,2.07-.37,20.2,20.2,0,0,1-3.35,2.37,3.68,3.68,0,0,0,1.74-.18,25,25,0,0,1-4,2.82,4.71,4.71,0,0,0,2.48-.32l-.94.94h0c-.5.34-1,.66-1.57,1a4.71,4.71,0,0,0,2.48-.32l-.94.94a3.81,3.81,0,0,0,1.38,0,25.08,25.08,0,0,1-2.92,1.94,4.67,4.67,0,0,0,2.48-.33l-.94.95.17,0a29.68,29.68,0,0,1-4.7,3.29,5.76,5.76,0,0,0,3-.4l-.13.13a29,29,0,0,1-2.91,1.87,5.76,5.76,0,0,0,3-.4l-1.16,1.16a4.3,4.3,0,0,0,.8,0,28.46,28.46,0,0,1-2.68,1.7,5.76,5.76,0,0,0,3-.4l-1.16,1.16a4.37,4.37,0,0,0,1.28,0,6.2,6.2,0,0,0,2-.3l-.11.18-.44.45-.24.21.16,0c-.61.42-1.24.83-1.92,1.21a1.64,1.64,0,0,0,.32,0,28.68,28.68,0,0,1-2.89,1.87l.16,0c-.61.37-1.24.73-1.9,1.07a6.74,6.74,0,0,0,3.15-.35c-.45.29-.92.58-1.41.85l.16,0c-.61.37-1.24.73-1.9,1.07a6.79,6.79,0,0,0,3.36-.41L214.88,232a4.14,4.14,0,0,0,.64.06c-.32.19-.64.39-1,.58l.15,0c-.61.37-1.23.73-1.89,1.07A6.84,6.84,0,0,0,216.16,233.35Z"/><path class="cls-24" d="M241.31,231.19s1.73.44,5.24-.63l-2,1.84a8.88,8.88,0,0,0,2.58,0,52,52,0,0,1-4.5,2.8h53.68a52,52,0,0,1-4.5-2.8,8.88,8.88,0,0,0,2.58,0l-2-1.84c3.52,1.07,5.25.63,5.25.63-1.61-.83-3.12-1.73-4.56-2.66l-.45-.42.62,0a9.94,9.94,0,0,0,4.39.4c-1.12-.58-2.19-1.2-3.23-1.84a8.59,8.59,0,0,0,3.23.14,50.73,50.73,0,0,1-6-3.65,4,4,0,0,0,.85-.07,40.11,40.11,0,0,1-4.18-2.49c-.6-.49-1.19-1-1.75-1.51a7.32,7.32,0,0,0,3.27.27l-1.63-1.5a8.74,8.74,0,0,0,4.29.51c-1-.52-2-1.07-2.88-1.64l.22,0-1.63-1.51a8.69,8.69,0,0,0,4.29.52c-1.2-.62-2.32-1.28-3.39-2a7.82,7.82,0,0,0,3.39.28,42.32,42.32,0,0,1-8.35-5.69,6,6,0,0,0,2.23.11L285,207.21a7.29,7.29,0,0,0,3.55.43c-.69-.36-1.35-.74-2-1.14l.16,0-1-.63a6.15,6.15,0,0,0,.68,0L285,204.55a7.29,7.29,0,0,0,3.55.43c-.7-.36-1.36-.74-2-1.14l.17,0c-.52-.29-1-.59-1.49-.9a7,7,0,0,0,3.33.37c-.7-.36-1.36-.74-2-1.13l.17,0a30.83,30.83,0,0,1-4.76-3.31l.17,0-.24-.22-.48-.48-.11-.18a6.72,6.72,0,0,0,2.08.31,4.86,4.86,0,0,0,1.35,0L283.52,197a6.17,6.17,0,0,0,3.21.42,30.62,30.62,0,0,1-2.84-1.81,4.85,4.85,0,0,0,.85-.05l-1.22-1.23a6.13,6.13,0,0,0,3.21.43,31.33,31.33,0,0,1-3.08-2l-.13-.13a6,6,0,0,0,3.21.42,31.42,31.42,0,0,1-5-3.48l.19,0-1-1a5,5,0,0,0,2.62.35,26.62,26.62,0,0,1-3.08-2.06,4.14,4.14,0,0,0,1.46.05l-1-1a4.87,4.87,0,0,0,2.62.34c-.58-.32-1.13-.67-1.66-1h0l-1-1a5,5,0,0,0,2.62.35,25.93,25.93,0,0,1-4.23-3,3.76,3.76,0,0,0,1.84.18,21,21,0,0,1-3.55-2.51,3.5,3.5,0,0,0,2.2.4l-.83-.83a4.17,4.17,0,0,0,2.18.28c-.62-.35-1.2-.72-1.76-1.11a3.14,3.14,0,0,0,.41,0l-.83-.83a4.13,4.13,0,0,0,2.18.29,21.65,21.65,0,0,1-5.52-4.46,2.6,2.6,0,0,0,1.58.26l-.62-.62a3.11,3.11,0,0,0,1.63.21,15,15,0,0,1-2-1.33,2.48,2.48,0,0,0,1,0l-.62-.62a3.07,3.07,0,0,0,1.63.22,18,18,0,0,1-2.49-1.74l.1,0c-.16-.08-.29-.18-.44-.27a16.51,16.51,0,0,1-2-2.09,2,2,0,0,0,.51.09l-.28-.45a1.91,1.91,0,0,0,1.42.36l-.45-.46a2.24,2.24,0,0,0,1.19.16,11.75,11.75,0,0,1-1.89-1.33l-.27-.43a1.86,1.86,0,0,0,1.42.36l-.45-.45a2.28,2.28,0,0,0,1.19.15c-5.46-3.07-6.29-9.22-6.37-9.87h0c-.07.65-.9,6.8-6.36,9.87a2.28,2.28,0,0,0,1.19-.15l-.45.45a1.87,1.87,0,0,0,1.42-.36l-.27.43a12.22,12.22,0,0,1-1.89,1.33,2.24,2.24,0,0,0,1.19-.16l-.45.46a1.92,1.92,0,0,0,1.42-.36L265,167a2,2,0,0,0,.52-.09,16.61,16.61,0,0,1-2,2.09c-.14.09-.28.19-.43.27l.09,0a16.87,16.87,0,0,1-2.49,1.74,3.11,3.11,0,0,0,1.64-.22l-.62.62a2.47,2.47,0,0,0,1,0,14.47,14.47,0,0,1-2,1.33,3.15,3.15,0,0,0,1.64-.21l-.62.62a2.6,2.6,0,0,0,1.58-.26,21.65,21.65,0,0,1-5.52,4.46,4.09,4.09,0,0,0,2.17-.29l-.82.83a3.14,3.14,0,0,0,.41,0c-.56.39-1.14.76-1.76,1.11a4.13,4.13,0,0,0,2.17-.28l-.82.83a3.47,3.47,0,0,0,2.19-.4,20.53,20.53,0,0,1-3.54,2.51,3.72,3.72,0,0,0,1.83-.18,25.5,25.5,0,0,1-4.23,3,5,5,0,0,0,2.63-.35l-1,1h0c-.54.36-1.09.71-1.67,1a4.91,4.91,0,0,0,2.63-.34l-1,1a4.14,4.14,0,0,0,1.46-.05,25.92,25.92,0,0,1-3.09,2.06,5,5,0,0,0,2.63-.35l-1,1,.19,0a31.42,31.42,0,0,1-5,3.48,6,6,0,0,0,3.21-.42l-.13.13a31.33,31.33,0,0,1-3.08,2,6.13,6.13,0,0,0,3.21-.43l-1.22,1.23a4.85,4.85,0,0,0,.85.05,32,32,0,0,1-2.84,1.81,6.17,6.17,0,0,0,3.21-.42l-1.22,1.22a4.86,4.86,0,0,0,1.35,0,6.72,6.72,0,0,0,2.08-.31l-.12.18-.47.48-.24.22.17,0a31.83,31.83,0,0,1-4.76,3.31l.17,0c-.65.39-1.32.77-2,1.13a7.07,7.07,0,0,0,3.34-.37c-.48.31-1,.61-1.49.9l.17,0c-.65.4-1.32.78-2,1.14a7.33,7.33,0,0,0,3.56-.43l-1.35,1.25a5.86,5.86,0,0,0,.68,0l-1,.63.16,0c-.65.4-1.31.78-2,1.14a7.33,7.33,0,0,0,3.56-.43l-1.35,1.25a6,6,0,0,0,2.23-.11,42.61,42.61,0,0,1-8.35,5.69,7.82,7.82,0,0,0,3.39-.28c-1.08.69-2.19,1.35-3.39,2a8.69,8.69,0,0,0,4.29-.52l-1.63,1.51.21,0c-.92.57-1.86,1.12-2.87,1.64a8.74,8.74,0,0,0,4.29-.51l-1.63,1.5a7.32,7.32,0,0,0,3.27-.27c-.57.51-1.15,1-1.75,1.51a41.18,41.18,0,0,1-4.18,2.49,3.9,3.9,0,0,0,.85.07,52.4,52.4,0,0,1-6,3.65,8.53,8.53,0,0,0,3.22-.14c-1,.64-2.1,1.26-3.22,1.84a9.9,9.9,0,0,0,4.38-.4l.63,0-.46.42A52.28,52.28,0,0,1,241.31,231.19Z"/><path class="cls-10" d="M255.33,232.48,254,233.8a5.39,5.39,0,0,0,1.46,0,7.58,7.58,0,0,0,2.25-.35l-.13.21-.51.51-.26.24.18,0-.9.72h28.78l-.9-.72.18,0-.26-.24-.51-.51-.13-.21a7.58,7.58,0,0,0,2.25.35,5.29,5.29,0,0,0,1.45,0l-1.31-1.32a6.52,6.52,0,0,0,3.46.46,35.55,35.55,0,0,1-3.06-1.95,4.8,4.8,0,0,0,.91-.06l-1.31-1.32a6.56,6.56,0,0,0,3.46.45,34.35,34.35,0,0,1-3.32-2.14l-.14-.15a6.52,6.52,0,0,0,3.46.46,34.34,34.34,0,0,1-5.37-3.76l.2,0-1.07-1.08a5.25,5.25,0,0,0,2.83.37,28.06,28.06,0,0,1-3.34-2.22,4.4,4.4,0,0,0,1.58.06l-1.07-1.08a5.38,5.38,0,0,0,2.83.37c-.63-.35-1.22-.73-1.8-1.12h0l-1.07-1.09a5.34,5.34,0,0,0,2.83.38,28.18,28.18,0,0,1-4.57-3.23,4.06,4.06,0,0,0,2,.2,23.56,23.56,0,0,1-3.83-2.71,3.78,3.78,0,0,0,2.37.42l-.89-.89a4.54,4.54,0,0,0,2.35.31c-.67-.38-1.29-.79-1.9-1.21a3.55,3.55,0,0,0,.44,0l-.89-.89a4.44,4.44,0,0,0,2.35.3,23,23,0,0,1-6-4.81,2.75,2.75,0,0,0,1.71.28l-.67-.67a3.24,3.24,0,0,0,1.76.23,17.83,17.83,0,0,1-2.15-1.43,2.89,2.89,0,0,0,1.06,0l-.67-.67a3.37,3.37,0,0,0,1.76.23,17.36,17.36,0,0,1-2.69-1.88h.1l-.46-.3a17,17,0,0,1-2.11-2.25,2.25,2.25,0,0,0,.55.09l-.31-.48a2.06,2.06,0,0,0,1.54.38l-.49-.49a2.39,2.39,0,0,0,1.28.17,12.43,12.43,0,0,1-2-1.43l-.3-.47a2,2,0,0,0,1.54.39l-.49-.49a2.39,2.39,0,0,0,1.28.17c-5.89-3.32-6.79-10-6.87-10.66h0c-.08.7-1,7.34-6.87,10.66a2.39,2.39,0,0,0,1.28-.17l-.48.49a2,2,0,0,0,1.53-.39l-.29.47a12.52,12.52,0,0,1-2,1.43,2.39,2.39,0,0,0,1.28-.17l-.48.49a2,2,0,0,0,1.53-.38l-.3.48a2.25,2.25,0,0,0,.55-.09,17,17,0,0,1-2.11,2.25l-.47.3h.1a16.89,16.89,0,0,1-2.69,1.88,3.41,3.41,0,0,0,1.77-.23l-.67.67a2.89,2.89,0,0,0,1.06,0,18,18,0,0,1-2.16,1.43,3.28,3.28,0,0,0,1.77-.23l-.67.67a2.76,2.76,0,0,0,1.71-.28,23.24,23.24,0,0,1-6,4.81,4.48,4.48,0,0,0,2.36-.3l-.9.89a3.86,3.86,0,0,0,.44,0c-.6.42-1.23.83-1.9,1.21a4.58,4.58,0,0,0,2.36-.31l-.9.89a3.78,3.78,0,0,0,2.37-.42,23.13,23.13,0,0,1-3.83,2.71,4.1,4.1,0,0,0,2-.2,28.18,28.18,0,0,1-4.57,3.23,5.34,5.34,0,0,0,2.83-.38L257,219.74h.05c-.58.39-1.17.77-1.8,1.12a5.38,5.38,0,0,0,2.83-.37L257,221.57a4.42,4.42,0,0,0,1.58-.06,27.14,27.14,0,0,1-3.33,2.22,5.25,5.25,0,0,0,2.83-.37L257,224.44l.21,0a34.44,34.44,0,0,1-5.38,3.76,6.56,6.56,0,0,0,3.47-.46l-.14.15a33.33,33.33,0,0,1-3.33,2.14,6.6,6.6,0,0,0,3.47-.45L254,230.93a5,5,0,0,0,.92.06,34.25,34.25,0,0,1-3.07,1.95A6.56,6.56,0,0,0,255.33,232.48Z"/><path class="cls-32" d="M285.88,234.53l-.71.66h39.18l-.72-.66a8.81,8.81,0,0,0,4.32.52c-.85-.44-1.66-.9-2.44-1.37l.2,0c-.62-.35-1.22-.72-1.81-1.1A8.56,8.56,0,0,0,328,233c-.85-.44-1.66-.9-2.44-1.37l.2,0a39.09,39.09,0,0,1-5.78-4l.21,0-.3-.27-.57-.58-.14-.23a8.43,8.43,0,0,0,2.52.39,5.72,5.72,0,0,0,1.64,0l-1.48-1.49a7.36,7.36,0,0,0,3.9.52,40.65,40.65,0,0,1-3.45-2.2,5,5,0,0,0,1-.06l-1.48-1.49a7.4,7.4,0,0,0,3.9.51A38.67,38.67,0,0,1,322,220.2l-.16-.16a7.4,7.4,0,0,0,3.9.51,38.08,38.08,0,0,1-6-4.23l.22,0-1.21-1.22a6,6,0,0,0,3.19.42,30.12,30.12,0,0,1-3.75-2.49,5.19,5.19,0,0,0,1.77.06l-1.21-1.22a6.1,6.1,0,0,0,3.19.42c-.71-.4-1.37-.82-2-1.26h0l-1.21-1.22a6.1,6.1,0,0,0,3.19.42,31.59,31.59,0,0,1-5.14-3.63,4.64,4.64,0,0,0,2.23.22,25.89,25.89,0,0,1-4.31-3,4.24,4.24,0,0,0,2.67.48l-1-1a5,5,0,0,0,2.64.35c-.75-.42-1.46-.88-2.14-1.35a3.17,3.17,0,0,0,.5-.05l-1-1a5,5,0,0,0,2.64.35,26.22,26.22,0,0,1-6.71-5.41,3.16,3.16,0,0,0,1.93.31l-.76-.75a3.79,3.79,0,0,0,2,.26,20.39,20.39,0,0,1-2.42-1.62,3,3,0,0,0,1.2.05l-.76-.76a3.75,3.75,0,0,0,2,.27,20.24,20.24,0,0,1-3-2.12l.11,0c-.18-.1-.35-.22-.52-.33a20.8,20.8,0,0,1-2.38-2.53,3.14,3.14,0,0,0,.63.11l-.35-.55a2.31,2.31,0,0,0,1.73.43l-.55-.55a2.76,2.76,0,0,0,1.44.19,14.57,14.57,0,0,1-2.29-1.61l-.33-.53a2.29,2.29,0,0,0,1.73.44l-.55-.55a2.76,2.76,0,0,0,1.44.19c-6.63-3.74-7.64-11.2-7.72-12,0,0,0,0,0,0-.09.79-1.09,8.25-7.73,12a2.76,2.76,0,0,0,1.44-.19l-.54.55a2.3,2.3,0,0,0,1.73-.44l-.34.53a13.7,13.7,0,0,1-2.29,1.61,2.76,2.76,0,0,0,1.44-.19l-.54.55a2.32,2.32,0,0,0,1.73-.43l-.35.55a3,3,0,0,0,.62-.11,20,20,0,0,1-2.37,2.53c-.18.11-.34.23-.53.33l.12,0a20.34,20.34,0,0,1-3,2.12,3.75,3.75,0,0,0,2-.27l-.75.76a3,3,0,0,0,1.19-.05,19.6,19.6,0,0,1-2.42,1.62,3.79,3.79,0,0,0,2-.26l-.75.75a3.16,3.16,0,0,0,1.93-.31,26.22,26.22,0,0,1-6.71,5.41,5,5,0,0,0,2.64-.35l-1,1a3.13,3.13,0,0,0,.49.05,24.93,24.93,0,0,1-2.13,1.35,5,5,0,0,0,2.64-.35l-1,1a4.21,4.21,0,0,0,2.66-.48,25.8,25.8,0,0,1-4.3,3,4.64,4.64,0,0,0,2.23-.22,31.59,31.59,0,0,1-5.14,3.63,6.06,6.06,0,0,0,3.18-.42L289.62,211h.05c-.65.44-1.32.86-2,1.26a6.06,6.06,0,0,0,3.18-.42l-1.21,1.22a5.25,5.25,0,0,0,1.78-.06,30.12,30.12,0,0,1-3.75,2.49,5.93,5.93,0,0,0,3.18-.42l-1.21,1.22.23,0a38.18,38.18,0,0,1-6.05,4.23,7.43,7.43,0,0,0,3.91-.51l-.17.16a36.37,36.37,0,0,1-3.74,2.41,7.43,7.43,0,0,0,3.91-.51l-1.49,1.49a5.07,5.07,0,0,0,1,.06,39.12,39.12,0,0,1-3.45,2.2,7.39,7.39,0,0,0,3.91-.52l-1.49,1.49a5.72,5.72,0,0,0,1.64,0,8.48,8.48,0,0,0,2.53-.39l-.14.23-.58.58-.29.27.2,0a38.06,38.06,0,0,1-5.78,4l.21,0c-.79.47-1.6.93-2.45,1.37a8.61,8.61,0,0,0,4.06-.45c-.59.38-1.19.75-1.82,1.1l.21,0c-.79.47-1.6.93-2.45,1.37A8.81,8.81,0,0,0,285.88,234.53Z"/><path class="cls-24" d="M307.7,233.44c-1,.6-2,1.18-3.06,1.75h4.05l.36-.08.72,0-.11.1h26.65V141.57a15.23,15.23,0,0,1-7,9.37,2.68,2.68,0,0,0,1.38-.19l-.53.53a2.22,2.22,0,0,0,1.66-.42l-.32.51a13.33,13.33,0,0,1-2.19,1.54,2.58,2.58,0,0,0,1.38-.18l-.53.53a2.22,2.22,0,0,0,1.66-.42l-.33.53a2.83,2.83,0,0,0,.6-.11,20,20,0,0,1-2.28,2.44l-.5.31.1,0a18.64,18.64,0,0,1-2.9,2,3.71,3.71,0,0,0,1.91-.25l-.73.72a3,3,0,0,0,1.15-.05,17.14,17.14,0,0,1-2.33,1.55,3.57,3.57,0,0,0,1.91-.25l-.73.73a3.12,3.12,0,0,0,1.85-.3,25.17,25.17,0,0,1-6.43,5.19,4.81,4.81,0,0,0,2.53-.34l-1,1a4,4,0,0,0,.47,0c-.65.46-1.32.89-2,1.3a4.71,4.71,0,0,0,2.53-.33l-1,1a4.14,4.14,0,0,0,2.56-.46,25.14,25.14,0,0,1-4.13,2.92,4.45,4.45,0,0,0,2.13-.21,30,30,0,0,1-4.92,3.48,5.8,5.8,0,0,0,3-.4l-1.16,1.16h.05c-.63.42-1.27.82-1.94,1.2a5.67,5.67,0,0,0,3-.4l-1.16,1.17a4.8,4.8,0,0,0,1.7-.06,29.45,29.45,0,0,1-3.59,2.39,5.67,5.67,0,0,0,3-.4l-1.16,1.17.22,0a35.94,35.94,0,0,1-5.8,4,7,7,0,0,0,3.74-.49l-.15.16a37.46,37.46,0,0,1-3.59,2.31,7,7,0,0,0,3.74-.49L319,186.58a5.65,5.65,0,0,0,1,.06,37.35,37.35,0,0,1-3.31,2.1,7,7,0,0,0,3.74-.49L319,189.68a5.49,5.49,0,0,0,1.57,0,7.9,7.9,0,0,0,2.42-.37l-.13.22-.55.55-.29.27.2,0a36.94,36.94,0,0,1-5.54,3.85l.2,0c-.76.46-1.53.9-2.35,1.32a8.35,8.35,0,0,0,3.89-.43c-.56.36-1.14.72-1.74,1.05l.2,0c-.76.45-1.53.9-2.35,1.32a8.51,8.51,0,0,0,4.14-.5l-1.57,1.45a5.15,5.15,0,0,0,.79.07c-.4.24-.79.49-1.21.72l.18,0c-.75.45-1.52.9-2.33,1.32a8.51,8.51,0,0,0,4.14-.5l-1.57,1.45a7.08,7.08,0,0,0,2.59-.12,48.6,48.6,0,0,1-9.72,6.62,9.07,9.07,0,0,0,3.95-.32c-1.25.8-2.55,1.58-3.95,2.3,0,0,1.65.42,5-.61l-1.89,1.75.25,0c-1.07.66-2.18,1.31-3.35,1.92,0,0,1.65.42,5-.61l-1.89,1.76a8.62,8.62,0,0,0,3.81-.32c-.66.6-1.34,1.18-2,1.77a49.64,49.64,0,0,1-4.87,2.89,4.18,4.18,0,0,0,1,.09,60.18,60.18,0,0,1-7,4.24,9.82,9.82,0,0,0,3.76-.16c-1.21.74-2.45,1.46-3.76,2.14a11.53,11.53,0,0,0,5.11-.47c.22,0,.46,0,.72,0l-.52.48c-1.67,1.09-3.44,2.13-5.31,3.1,0,0,2,.52,6.11-.74l-2.32,2.15a10,10,0,0,0,3,0,62.64,62.64,0,0,1-6.79,4.1A10.1,10.1,0,0,0,307.7,233.44Z"/><path class="cls-33" d="M284.07,113.67a10.36,10.36,0,0,0-.21-11.35,9.89,9.89,0,0,0-3.38-16,10,10,0,0,0-13.59-14.52l-.11,0a11.13,11.13,0,0,0-22.2-.13h-.14a11.19,11.19,0,0,0-3.24.48,13.28,13.28,0,0,0-25.54,1.72,10.79,10.79,0,0,0-6.23,3.25,8.63,8.63,0,0,0-7.93-12,8.53,8.53,0,0,0-1.61.16,10.23,10.23,0,0,0-8-3.89,11.2,11.2,0,0,0-1.3.08,10,10,0,0,0-14.46-3.94,5.73,5.73,0,1,0-1.8,1.5,10,10,0,0,0-2.77,6.92h0a15.78,15.78,0,0,0-2.82,1.24,5.25,5.25,0,0,0,.77-2.72,5.35,5.35,0,0,0-5.11-5.33,10,10,0,0,0-16.55-7.49,3.79,3.79,0,1,0-3.54,2.45,3.73,3.73,0,0,0,1.73-.44,10,10,0,0,0-1.73,5.64,9.36,9.36,0,0,0,.1,1.3,5.67,5.67,0,0,0-5,.42,5.11,5.11,0,0,0-2.58-1.7,4.16,4.16,0,0,0-7.57-3.42,5.35,5.35,0,0,0-2-.4,5.41,5.41,0,1,0,0,10.82,5.34,5.34,0,0,0,3.28-1.11,5.09,5.09,0,0,0,5,4.07,5,5,0,0,0,2-.44A5.67,5.67,0,0,0,147.85,67a9.38,9.38,0,0,0,2.2,1.41,7.78,7.78,0,0,0,10.38,11.16A16.25,16.25,0,0,0,176.6,97.66a16.74,16.74,0,0,0,3.56-.39,3.85,3.85,0,0,0-.1.83,3.78,3.78,0,0,0,6.74,2.38,14.92,14.92,0,0,0,2.51,1.9,5,5,0,1,0,5.84,4.9,4.93,4.93,0,0,0-1.09-3.07,15.3,15.3,0,0,0,2.81.27,14.69,14.69,0,0,0,14.22-11,10.87,10.87,0,0,0,15.79-3.82,13.93,13.93,0,0,0,1.72.12,6.09,6.09,0,0,0,9.91,2,11,11,0,0,0,13.37-1.15,13.91,13.91,0,0,0,3.6,5.2,6.41,6.41,0,1,0,10.14,7.82l.2.07a10.39,10.39,0,0,0,12.4,14.35c0,.15,0,.29,0,.44a5,5,0,1,0,5.89-4.9Z"/><circle class="cls-33" cx="189.05" cy="52.22" r="5.19" transform="translate(18.45 148.97) rotate(-45)"/><path class="cls-33" d="M117.17,60.56a3.61,3.61,0,1,0,3.6,3.61A3.61,3.61,0,0,0,117.17,60.56Z"/><path class="cls-34" d="M173.52,188.7,170.75,199l-1.49-8.1-2.32,8.63-1.79-9.81-2.19,8.1-1.89-10.35L158,199l-1.26-6.87-3.25,12.09-1.16-6.29-2.2,8.2-1.88-10.26-2.43,9-1.72-9.42-1.64,6.08-2.27-12.41-2.59,9.64L136,190l-3.05,11.32-1.29-7.07-2.57,9.54-1.63-8.88-1.55,5.74-2.33-12.75-3.93,14.59-.68-3.74-1.6,5.94L115,192.14l-3.66,13.58L110.5,201l-1.17,4.35-2.59-14.17-3.42,12.67-1-5.7-2.54,9.45-1.65-9-2.87,10.68-1.37-7.48-2.31,8.56-.76-2.81-1-5.68-2.3,8.57-1.75-9.57-3.17,11.75-1.16-6.34-1.83,6.8-2.08-11.38-2.19,8.14-1.83-10-2.34,8.67L69.36,199,66.3,210.33l-.65-2.43-.34,1.84-.4-2.23-1.25,4.64-2.49-13.59-2.5,9.31-1.44-5.35-.16.86-.16-.86-1.44,5.35L53,198.56l-2.48,13.59-1.25-4.64-.41,2.23-.33-1.84-.66,2.43-3-11.33-1.73,9.47-2.34-8.67-1.83,10-2.19-8.14-2.08,11.38-1.84-6.8-1.16,6.34-3.16-11.75-1.75,9.57-2.31-8.57-1,5.68-.76,2.81-2.3-8.56-1.37,7.48L16,198.57l-1.64,9-2.55-9.45-1,5.7L7.4,188.3l-2.59,9.92-1.17-4.36-.88,4.77L0,188.37v46.82H118.61c0-2.88,22-19.38,56.87-35.79Z"/><g id="grass"><path class="cls-32" d="M135.71,231.13a30.46,30.46,0,0,1,1.69-5.21s-1.51,2.62-2.66,4.9a10.28,10.28,0,0,0-1.11,4.43h1.74A27.27,27.27,0,0,1,135.71,231.13Z"/><path class="cls-32" d="M153.69,235.25h1.12a21.78,21.78,0,0,1-.05-2.8,10.73,10.73,0,0,1,1.15-3.35,24.6,24.6,0,0,0-2.22,3.21c0-1.74,0-4.14-.11-6.87a101,101,0,0,0-.94-10.87s.28,5.62.09,11.14a58.26,58.26,0,0,1-1.08,9.54h2Z"/><path class="cls-32" d="M169.38,231.6a20.25,20.25,0,0,0-4.79,2.61,28.33,28.33,0,0,1,2.12-4.68s-2,2.62-3.57,4.9a8,8,0,0,0-.49.82h2c.05-.1.09-.19.15-.29C165.81,233.05,169.38,231.6,169.38,231.6Z"/><path class="cls-32" d="M137.67,234.64a25.27,25.27,0,0,1,2.26-5.22s-2,2.62-3.58,4.91a10.14,10.14,0,0,0-.55.92h1.74C137.58,235.05,137.62,234.85,137.67,234.64Z"/><path class="cls-32" d="M140.39,235.1c1-1.92,4.6-3.36,4.6-3.36a19.92,19.92,0,0,0-5.75,3.36l-.18.15h1.25A1.09,1.09,0,0,1,140.39,235.1Z"/><path class="cls-32" d="M132.69,235.25s-.52-1.64-.17-6.4a25.77,25.77,0,0,1,3-9.38,18.43,18.43,0,0,0-4,7.32,26.75,26.75,0,0,0-.59,5.3c-.53-2-1.16-4-1.16-4a21.51,21.51,0,0,1,.09,5.33c-.11.63-.27,1.26-.43,1.83h3.27Z"/><path class="cls-32" d="M127,235.25a31.19,31.19,0,0,0-1.27-5.34c-.93-2.77-4-5.91-4-5.91a18.5,18.5,0,0,1,2.77,5.74,10.63,10.63,0,0,1,.47,2.48,13.53,13.53,0,0,0-4-3.43s2.95,1.75,3.21,3.72a7.48,7.48,0,0,1-.15,2.74h3Z"/><path class="cls-32" d="M149,235.08a62.22,62.22,0,0,0-1.56-10.86s.31,3.73.25,8.09c-.71-2.13-1.56-4.25-1.56-4.25a19.46,19.46,0,0,1,.35,5.35,16.11,16.11,0,0,1-.39,1.84H149Z"/><path class="cls-32" d="M158.46,235.25a11.81,11.81,0,0,1,.56-3.36,7.7,7.7,0,0,1,2.63-3.35,11.89,11.89,0,0,0-3.29,3.35,10.5,10.5,0,0,0-.89,1.58,5.63,5.63,0,0,0-.89-2.61,4.36,4.36,0,0,1,.27,3.62c-.1.27-.22.53-.33.77h1.94Z"/><path class="cls-32" d="M105.88,235.25s.52-1.64.17-6.4a25.77,25.77,0,0,0-3-9.38,18.43,18.43,0,0,1,4,7.32,25.34,25.34,0,0,1,.59,5.3c.54-2,1.16-4,1.16-4a21.51,21.51,0,0,0-.09,5.33c.11.63.27,1.26.43,1.83h-3.27Z"/><path class="cls-32" d="M181.6,235.25h-.82a17.81,17.81,0,0,0,0-2.06,8,8,0,0,0-.85-2.48,19,19,0,0,1,1.64,2.37c0-1.29,0-3.05.08-5.07a74.73,74.73,0,0,1,.69-8s-.21,4.15-.07,8.22a42.67,42.67,0,0,0,.8,7H181.6Z"/><path class="cls-32" d="M92.35,231.13A30.46,30.46,0,0,1,94,225.92s-1.51,2.62-2.66,4.9a10.46,10.46,0,0,0-1.11,4.43H92A28,28,0,0,1,92.35,231.13Z"/><path class="cls-32" d="M172.92,235.25h.86a16.59,16.59,0,0,1,0-2.13,8.36,8.36,0,0,1,.87-2.57,19.63,19.63,0,0,0-1.69,2.45c0-1.32,0-3.15-.09-5.24a76.62,76.62,0,0,0-.71-8.29s.21,4.29.07,8.5a44.79,44.79,0,0,1-.83,7.28h1.56Z"/><path class="cls-32" d="M94.31,234.64a25.1,25.1,0,0,1,2.27-5.22s-2,2.62-3.58,4.91a8.26,8.26,0,0,0-.55.92h1.73C94.22,235.05,94.26,234.85,94.31,234.64Z"/><path class="cls-32" d="M97,235.1c1-1.92,4.6-3.36,4.6-3.36a20.06,20.06,0,0,0-5.75,3.36l-.18.15H97Z"/><path class="cls-32" d="M85.87,235.25s-.52-1.64-.17-6.4a25.77,25.77,0,0,1,3-9.38,18.43,18.43,0,0,0-4,7.32,25.34,25.34,0,0,0-.59,5.3c-.54-2-1.16-4-1.16-4a21.51,21.51,0,0,1,.09,5.33c-.11.63-.27,1.26-.43,1.83h3.27Z"/><path class="cls-32" d="M113.82,235.25a11.81,11.81,0,0,1,.56-3.36,7.7,7.7,0,0,1,2.63-3.35,11.89,11.89,0,0,0-3.29,3.35,10.5,10.5,0,0,0-.89,1.58,5.63,5.63,0,0,0-.89-2.61,4.36,4.36,0,0,1,.27,3.62c-.1.27-.22.53-.33.77h1.94Z"/><path class="cls-32" d="M78,225.71c-.19-5.52.09-11.14.09-11.14a99.53,99.53,0,0,0-.93,10.87l0,1.19v8.62h2A57.52,57.52,0,0,1,78,225.71Z"/></g><g id="grass-2" data-name="grass"><path class="cls-32" d="M188.69,231.13a29.54,29.54,0,0,1,1.69-5.21s-1.51,2.62-2.67,4.9a10.46,10.46,0,0,0-1.11,4.43h1.75A27.27,27.27,0,0,1,188.69,231.13Z"/><path class="cls-32" d="M206.67,235.25h1.12a21.78,21.78,0,0,1,0-2.8,10.54,10.54,0,0,1,1.14-3.35,24.6,24.6,0,0,0-2.22,3.21c0-1.74,0-4.14-.11-6.87a99.53,99.53,0,0,0-.93-10.87s.27,5.62.08,11.14a58.26,58.26,0,0,1-1.08,9.54h2Z"/><path class="cls-32" d="M190.64,234.64a25.67,25.67,0,0,1,2.27-5.22s-2,2.62-3.58,4.91a10.14,10.14,0,0,0-.55.92h1.74Z"/><path class="cls-32" d="M193.37,235.1c1-1.92,4.59-3.36,4.59-3.36a19.94,19.94,0,0,0-5.74,3.36l-.18.15h1.24Z"/><path class="cls-32" d="M185.67,235.25s-.52-1.64-.17-6.4a25.77,25.77,0,0,1,3-9.38,18.43,18.43,0,0,0-4,7.32,25.34,25.34,0,0,0-.59,5.3c-.54-2-1.16-4-1.16-4a21.51,21.51,0,0,1,.09,5.33c-.11.63-.27,1.26-.43,1.83h3.27Z"/><path class="cls-32" d="M180,235.25a31.19,31.19,0,0,0-1.27-5.34c-.93-2.77-4-5.91-4-5.91a18.5,18.5,0,0,1,2.77,5.74,11.17,11.17,0,0,1,.47,2.48,13.53,13.53,0,0,0-4-3.43s2.94,1.75,3.2,3.72a7.06,7.06,0,0,1-.15,2.74h3Z"/><path class="cls-32" d="M202,235.08a62.22,62.22,0,0,0-1.56-10.86s.3,3.73.25,8.09c-.71-2.13-1.56-4.25-1.56-4.25a19.89,19.89,0,0,1,.35,5.35,18.59,18.59,0,0,1-.39,1.84H202Z"/><path class="cls-32" d="M211.44,235.25a11.81,11.81,0,0,1,.56-3.36,7.63,7.63,0,0,1,2.63-3.35,11.89,11.89,0,0,0-3.29,3.35,9.68,9.68,0,0,0-.89,1.58,5.63,5.63,0,0,0-.89-2.61,4.36,4.36,0,0,1,.27,3.62c-.11.27-.22.53-.34.77h1.95Z"/><path class="cls-32" d="M158.85,235.25s.53-1.64.18-6.4a25.77,25.77,0,0,0-3-9.38,18.43,18.43,0,0,1,4,7.32,26.75,26.75,0,0,1,.59,5.3c.53-2,1.16-4,1.16-4a21.51,21.51,0,0,0-.09,5.33c.11.63.27,1.26.43,1.83h-3.28Z"/><path class="cls-32" d="M145.33,231.13a30.46,30.46,0,0,1,1.69-5.21s-1.51,2.62-2.66,4.9a10.28,10.28,0,0,0-1.11,4.43H145A28,28,0,0,1,145.33,231.13Z"/><path class="cls-32" d="M147.29,234.64a25.27,25.27,0,0,1,2.26-5.22s-2,2.62-3.57,4.91a7,7,0,0,0-.55.92h1.73C147.2,235.05,147.24,234.85,147.29,234.64Z"/><path class="cls-32" d="M150,235.1c1-1.92,4.6-3.36,4.6-3.36a19.92,19.92,0,0,0-5.75,3.36l-.18.15h1.25A1.09,1.09,0,0,1,150,235.1Z"/><path class="cls-32" d="M138.85,235.25s-.52-1.64-.18-6.4a25.69,25.69,0,0,1,3-9.38,18.29,18.29,0,0,0-4,7.32,26.08,26.08,0,0,0-.6,5.3c-.53-2-1.16-4-1.16-4a21.84,21.84,0,0,1,.1,5.33c-.12.63-.27,1.26-.43,1.83h3.27Z"/><path class="cls-32" d="M166.8,235.25a11.81,11.81,0,0,1,.56-3.36,7.63,7.63,0,0,1,2.63-3.35,11.89,11.89,0,0,0-3.29,3.35,9.68,9.68,0,0,0-.89,1.58,5.63,5.63,0,0,0-.89-2.61,4.36,4.36,0,0,1,.27,3.62c-.11.27-.22.53-.34.77h2Z"/><path class="cls-32" d="M131,225.71c-.19-5.52.09-11.14.09-11.14a101,101,0,0,0-.94,10.87l0,1.19v8.62h2A58.26,58.26,0,0,1,131,225.71Z"/></g><rect class="cls-35" x="222.49" y="167.24" width="2.1" height="15.98"/><path class="cls-32" d="M120.15,233.35l.95.87c.38.24.78.48,1.18.71a5.55,5.55,0,0,1-2.69-.28l.66.54H90.71l.66-.54a5.55,5.55,0,0,1-2.69.28c.41-.23.8-.47,1.18-.71l1-.87a6.84,6.84,0,0,1-3.36.4c.66-.34,1.28-.7,1.89-1.07l-.15,0c.34-.19.66-.39,1-.58a4.14,4.14,0,0,1-.64-.06l1.28-1.18a6.79,6.79,0,0,1-3.36.41c.66-.34,1.29-.7,1.9-1.07l-.16,0c.49-.27,1-.56,1.41-.85a6.74,6.74,0,0,1-3.15.35c.66-.34,1.29-.7,1.9-1.07l-.16,0a28.68,28.68,0,0,0,2.89-1.87,1.64,1.64,0,0,1-.32,0c.68-.38,1.31-.79,1.92-1.21l-.15,0,.23-.21.44-.45.11-.18a6.2,6.2,0,0,1-2,.3,4.37,4.37,0,0,1-1.28,0l1.16-1.16a5.76,5.76,0,0,1-3,.4,28.46,28.46,0,0,0,2.68-1.7,4.3,4.3,0,0,1-.8,0l1.16-1.16a5.76,5.76,0,0,1-3,.4,29,29,0,0,0,2.91-1.87l.13-.13a5.76,5.76,0,0,1-3,.4,29.68,29.68,0,0,0,4.7-3.29l-.17,0,.94-.95a4.67,4.67,0,0,1-2.48.33,25.08,25.08,0,0,0,2.92-1.94,3.81,3.81,0,0,1-1.38,0l.94-.94a4.71,4.71,0,0,1-2.48.32c.55-.31,1.07-.63,1.57-1h0l.94-.94a4.71,4.71,0,0,1-2.48.32,24.56,24.56,0,0,0,4-2.82,3.68,3.68,0,0,1-1.74.18,20.2,20.2,0,0,0,3.35-2.37,3.29,3.29,0,0,1-2.07.37l.78-.79a3.91,3.91,0,0,1-2.06.27,18.07,18.07,0,0,0,1.66-1,2.75,2.75,0,0,1-.38,0l.78-.78a3.91,3.91,0,0,1-2.06.27A20.2,20.2,0,0,0,99.66,201a2.47,2.47,0,0,1-1.5.25l.59-.59a2.82,2.82,0,0,1-1.54.2,15,15,0,0,0,1.88-1.25,2.46,2.46,0,0,1-.93,0l.59-.59a3,3,0,0,1-1.54.2,15.8,15.8,0,0,0,2.35-1.64h-.09l.41-.26a16.06,16.06,0,0,0,1.84-2,1.93,1.93,0,0,1-.48.08l.27-.43a1.79,1.79,0,0,1-1.35.34l.43-.43a2,2,0,0,1-1.12.15,11.27,11.27,0,0,0,1.78-1.25l.26-.41a1.79,1.79,0,0,1-1.35.34l.43-.43a2.16,2.16,0,0,1-1.12.15c5.15-2.9,5.94-8.71,6-9.32h0c.06.61.85,6.42,6,9.32a2.16,2.16,0,0,1-1.12-.15l.43.43a1.79,1.79,0,0,1-1.35-.34l.26.41a11.27,11.27,0,0,0,1.78,1.25,2,2,0,0,1-1.12-.15l.43.43a1.79,1.79,0,0,1-1.35-.34l.27.43a1.93,1.93,0,0,1-.48-.08,16.06,16.06,0,0,0,1.84,2l.41.26h-.08a14.82,14.82,0,0,0,2.35,1.64,3,3,0,0,1-1.55-.2l.59.59a2.46,2.46,0,0,1-.93,0,14.39,14.39,0,0,0,1.89,1.25,2.86,2.86,0,0,1-1.55-.2l.59.59a2.47,2.47,0,0,1-1.5-.25,20.2,20.2,0,0,0,5.22,4.21,3.91,3.91,0,0,1-2.06-.27l.78.78a2.75,2.75,0,0,1-.38,0,18.07,18.07,0,0,0,1.66,1,3.91,3.91,0,0,1-2.06-.27l.78.79a3.29,3.29,0,0,1-2.07-.37,20.2,20.2,0,0,0,3.35,2.37,3.68,3.68,0,0,1-1.74-.18,25,25,0,0,0,4,2.82,4.71,4.71,0,0,1-2.48-.32l.94.94h0c.5.34,1,.66,1.57,1a4.71,4.71,0,0,1-2.48-.32l.94.94a3.81,3.81,0,0,1-1.38,0,25.08,25.08,0,0,0,2.92,1.94,4.67,4.67,0,0,1-2.48-.33l.94.95-.17,0a29.68,29.68,0,0,0,4.7,3.29,5.76,5.76,0,0,1-3-.4l.13.13a29,29,0,0,0,2.91,1.87,5.76,5.76,0,0,1-3-.4l1.16,1.16a4.3,4.3,0,0,1-.8,0,28.46,28.46,0,0,0,2.68,1.7,5.76,5.76,0,0,1-3-.4l1.16,1.16a4.37,4.37,0,0,1-1.28,0,6.2,6.2,0,0,1-2-.3l.11.18.44.45.24.21-.16,0c.61.42,1.24.83,1.92,1.21a1.64,1.64,0,0,1-.32,0,28.68,28.68,0,0,0,2.89,1.87l-.16,0c.61.37,1.24.73,1.9,1.07a6.74,6.74,0,0,1-3.15-.35c.45.29.92.58,1.41.85l-.16,0c.61.37,1.24.73,1.9,1.07a6.79,6.79,0,0,1-3.36-.41l1.28,1.18a4.14,4.14,0,0,1-.64.06c.32.19.64.39,1,.58l-.15,0c.61.37,1.23.73,1.89,1.07A6.84,6.84,0,0,1,120.15,233.35Z"/><path class="cls-32" d="M95,231.19s-1.73.44-5.24-.63l2,1.84a8.88,8.88,0,0,1-2.58,0,52,52,0,0,0,4.5,2.8H40a52,52,0,0,0,4.5-2.8,8.88,8.88,0,0,1-2.58,0l2-1.84c-3.52,1.07-5.25.63-5.25.63,1.61-.83,3.12-1.73,4.56-2.66l.45-.42-.62,0a9.94,9.94,0,0,1-4.39.4c1.12-.58,2.19-1.2,3.23-1.84a8.59,8.59,0,0,1-3.23.14,50.73,50.73,0,0,0,6-3.65,4,4,0,0,1-.85-.07A40.11,40.11,0,0,0,48,220.62c.6-.49,1.19-1,1.75-1.51a7.32,7.32,0,0,1-3.27.27l1.63-1.5a8.74,8.74,0,0,1-4.29.51c1-.52,2-1.07,2.88-1.64l-.22,0,1.63-1.51a8.69,8.69,0,0,1-4.29.52c1.2-.62,2.32-1.28,3.39-2a7.82,7.82,0,0,1-3.39.28,42.32,42.32,0,0,0,8.35-5.69,6,6,0,0,1-2.23.11l1.35-1.25a7.29,7.29,0,0,1-3.55.43c.69-.36,1.35-.74,2-1.14l-.16,0,1-.63a6.15,6.15,0,0,1-.68,0l1.35-1.25a7.29,7.29,0,0,1-3.55.43c.7-.36,1.36-.74,2-1.14l-.17,0c.52-.29,1-.59,1.49-.9a7,7,0,0,1-3.33.37c.7-.36,1.36-.74,2-1.13l-.17,0a30.83,30.83,0,0,0,4.76-3.31l-.17,0,.24-.22.48-.48.11-.18a6.72,6.72,0,0,1-2.08.31,4.86,4.86,0,0,1-1.35,0L52.79,197a6.17,6.17,0,0,1-3.21.42,30.62,30.62,0,0,0,2.84-1.81,4.85,4.85,0,0,1-.85-.05l1.22-1.23a6.13,6.13,0,0,1-3.21.43,31.33,31.33,0,0,0,3.08-2l.13-.13a6,6,0,0,1-3.21.42,31.42,31.42,0,0,0,5-3.48l-.19,0,1-1a5,5,0,0,1-2.62.35,26.62,26.62,0,0,0,3.08-2.06,4.14,4.14,0,0,1-1.46.05l1-1a4.87,4.87,0,0,1-2.62.34c.58-.32,1.13-.67,1.66-1h0l1-1a5,5,0,0,1-2.62.35,25.93,25.93,0,0,0,4.23-3,3.76,3.76,0,0,1-1.84.18,21,21,0,0,0,3.55-2.51,3.5,3.5,0,0,1-2.2.4l.83-.83a4.17,4.17,0,0,1-2.18.28c.62-.35,1.2-.72,1.76-1.11a3.14,3.14,0,0,1-.41,0l.83-.83a4.13,4.13,0,0,1-2.18.29,21.65,21.65,0,0,0,5.52-4.46,2.6,2.6,0,0,1-1.58.26l.62-.62a3.11,3.11,0,0,1-1.63.21,15,15,0,0,0,2-1.33,2.48,2.48,0,0,1-1,0l.62-.62a3.07,3.07,0,0,1-1.63.22,18,18,0,0,0,2.49-1.74l-.1,0c.16-.08.29-.18.44-.27a16.51,16.51,0,0,0,2-2.09,2,2,0,0,1-.51.09l.28-.45a1.91,1.91,0,0,1-1.42.36l.45-.46a2.24,2.24,0,0,1-1.19.16,11.75,11.75,0,0,0,1.89-1.33l.27-.43a1.86,1.86,0,0,1-1.42.36l.45-.45a2.28,2.28,0,0,1-1.19.15c5.46-3.07,6.29-9.22,6.37-9.87h0c.07.65.9,6.8,6.36,9.87a2.28,2.28,0,0,1-1.19-.15l.45.45a1.87,1.87,0,0,1-1.42-.36l.27.43a12.22,12.22,0,0,0,1.89,1.33,2.24,2.24,0,0,1-1.19-.16l.45.46a1.92,1.92,0,0,1-1.42-.36l.29.45a2,2,0,0,1-.52-.09,16.61,16.61,0,0,0,2,2.09c.14.09.28.19.43.27l-.09,0a16.87,16.87,0,0,0,2.49,1.74,3.11,3.11,0,0,1-1.64-.22l.62.62a2.47,2.47,0,0,1-1,0,14.47,14.47,0,0,0,2,1.33,3.15,3.15,0,0,1-1.64-.21l.62.62A2.6,2.6,0,0,1,73,172.9a21.65,21.65,0,0,0,5.52,4.46,4.09,4.09,0,0,1-2.17-.29l.82.83a3.14,3.14,0,0,1-.41,0c.56.39,1.14.76,1.76,1.11a4.13,4.13,0,0,1-2.17-.28l.82.83a3.47,3.47,0,0,1-2.19-.4,20.53,20.53,0,0,0,3.54,2.51,3.72,3.72,0,0,1-1.83-.18,25.5,25.5,0,0,0,4.23,3,5,5,0,0,1-2.63-.35l1,1h0c.54.36,1.09.71,1.67,1a4.91,4.91,0,0,1-2.63-.34l1,1a4.14,4.14,0,0,1-1.46-.05,25.92,25.92,0,0,0,3.09,2.06,5,5,0,0,1-2.63-.35l1,1-.19,0a31.42,31.42,0,0,0,5,3.48,6,6,0,0,1-3.21-.42l.13.13a31.33,31.33,0,0,0,3.08,2,6.13,6.13,0,0,1-3.21-.43l1.22,1.23a4.85,4.85,0,0,1-.85.05,32,32,0,0,0,2.84,1.81,6.17,6.17,0,0,1-3.21-.42l1.22,1.22a4.86,4.86,0,0,1-1.35,0,6.72,6.72,0,0,1-2.08-.31l.12.18.47.48.24.22-.17,0a31.83,31.83,0,0,0,4.76,3.31l-.17,0c.65.39,1.32.77,2,1.13a7.07,7.07,0,0,1-3.34-.37c.48.31,1,.61,1.49.9l-.17,0c.65.4,1.32.78,2,1.14a7.33,7.33,0,0,1-3.56-.43l1.35,1.25a5.86,5.86,0,0,1-.68,0l1,.63-.16,0c.65.4,1.31.78,2,1.14a7.33,7.33,0,0,1-3.56-.43l1.35,1.25a6,6,0,0,1-2.23-.11A42.61,42.61,0,0,0,89.84,214a7.82,7.82,0,0,1-3.39-.28c1.08.69,2.19,1.35,3.39,2a8.69,8.69,0,0,1-4.29-.52l1.63,1.51-.21,0c.92.57,1.86,1.12,2.87,1.64a8.74,8.74,0,0,1-4.29-.51l1.63,1.5a7.32,7.32,0,0,1-3.27-.27c.57.51,1.15,1,1.75,1.51a41.18,41.18,0,0,0,4.18,2.49,3.9,3.9,0,0,1-.85.07,52.4,52.4,0,0,0,6,3.65,8.53,8.53,0,0,1-3.22-.14c1,.64,2.1,1.26,3.22,1.84a9.9,9.9,0,0,1-4.38-.4l-.63,0,.46.42A52.28,52.28,0,0,0,95,231.19Z"/><path class="cls-32" d="M105.87,232.48l1.32,1.32a5.35,5.35,0,0,1-1.46,0,7.57,7.57,0,0,1-2.24-.35l.12.21.51.51.27.24-.19,0,.91.72H76.32l.91-.72-.19,0,.27-.24.5-.51.13-.21a7.57,7.57,0,0,1-2.24.35,5.35,5.35,0,0,1-1.46,0l1.32-1.32a6.56,6.56,0,0,1-3.47.46c1.08-.61,2.1-1.27,3.07-1.95a4.86,4.86,0,0,1-.92-.06l1.32-1.32a6.6,6.6,0,0,1-3.47.45,34.35,34.35,0,0,0,3.32-2.14l.15-.15a6.56,6.56,0,0,1-3.47.46,33.88,33.88,0,0,0,5.37-3.76l-.2,0,1.08-1.08a5.29,5.29,0,0,1-2.84.37,28.06,28.06,0,0,0,3.34-2.22,4.4,4.4,0,0,1-1.58.06l1.08-1.08a5.42,5.42,0,0,1-2.84.37c.63-.35,1.23-.73,1.8-1.12h0l1.08-1.09a5.38,5.38,0,0,1-2.84.38,28.18,28.18,0,0,0,4.57-3.23,4.06,4.06,0,0,1-2,.2,23.13,23.13,0,0,0,3.83-2.71,3.78,3.78,0,0,1-2.37.42l.89-.89a4.54,4.54,0,0,1-2.35.31c.67-.38,1.3-.79,1.9-1.21a3.55,3.55,0,0,1-.44,0l.89-.89a4.44,4.44,0,0,1-2.35.3,23.24,23.24,0,0,0,6-4.81,2.79,2.79,0,0,1-1.72.28l.67-.67a3.24,3.24,0,0,1-1.76.23,17.08,17.08,0,0,0,2.15-1.43,2.9,2.9,0,0,1-1.06,0l.67-.67a3.37,3.37,0,0,1-1.76.23,16.89,16.89,0,0,0,2.69-1.88h-.1l.47-.3a17.73,17.73,0,0,0,2.11-2.25,2.35,2.35,0,0,1-.56.09l.31-.48a2.06,2.06,0,0,1-1.54.38l.49-.49a2.39,2.39,0,0,1-1.28.17,13,13,0,0,0,2-1.43l.29-.47a2,2,0,0,1-1.54.39l.49-.49a2.39,2.39,0,0,1-1.28.17c5.89-3.32,6.79-10,6.87-10.66h0c.08.7,1,7.34,6.87,10.66a2.39,2.39,0,0,1-1.28-.17l.49.49a2,2,0,0,1-1.54-.39l.29.47a13,13,0,0,0,2,1.43,2.39,2.39,0,0,1-1.28-.17l.49.49a2.06,2.06,0,0,1-1.54-.38l.31.48a2.35,2.35,0,0,1-.56-.09,17.73,17.73,0,0,0,2.11,2.25l.47.3h-.1a16.89,16.89,0,0,0,2.69,1.88,3.37,3.37,0,0,1-1.76-.23l.67.67a2.9,2.9,0,0,1-1.06,0,17.08,17.08,0,0,0,2.15,1.43,3.24,3.24,0,0,1-1.76-.23l.67.67a2.79,2.79,0,0,1-1.72-.28,23.24,23.24,0,0,0,6,4.81A4.44,4.44,0,0,1,101,211l.89.89a3.55,3.55,0,0,1-.44,0c.6.42,1.23.83,1.9,1.21a4.54,4.54,0,0,1-2.35-.31l.89.89a3.78,3.78,0,0,1-2.37-.42,23.13,23.13,0,0,0,3.83,2.71,4.06,4.06,0,0,1-2-.2,28.18,28.18,0,0,0,4.57,3.23,5.38,5.38,0,0,1-2.84-.38l1.08,1.09h0c.57.39,1.17.77,1.8,1.12a5.42,5.42,0,0,1-2.84-.37l1.08,1.08a4.4,4.4,0,0,1-1.58-.06,28.06,28.06,0,0,0,3.34,2.22,5.29,5.29,0,0,1-2.84-.37l1.08,1.08-.2,0a33.88,33.88,0,0,0,5.37,3.76,6.56,6.56,0,0,1-3.47-.46l.15.15a34.35,34.35,0,0,0,3.32,2.14,6.6,6.6,0,0,1-3.47-.45l1.32,1.32a4.86,4.86,0,0,1-.92.06c1,.68,2,1.34,3.07,1.95A6.56,6.56,0,0,1,105.87,232.48Z"/><path class="cls-36" d="M50.43,234.53l.71.66H12l.72-.66a8.81,8.81,0,0,1-4.32.52c.85-.44,1.66-.9,2.44-1.37l-.2,0c.62-.35,1.22-.72,1.81-1.1a8.56,8.56,0,0,1-4.05.45c.85-.44,1.66-.9,2.44-1.37l-.2,0a39.09,39.09,0,0,0,5.78-4l-.21,0,.3-.27.57-.58.14-.23a8.43,8.43,0,0,1-2.52.39,5.72,5.72,0,0,1-1.64,0l1.48-1.49a7.36,7.36,0,0,1-3.9.52,40.65,40.65,0,0,0,3.45-2.2,5,5,0,0,1-1-.06l1.48-1.49a7.4,7.4,0,0,1-3.9.51,38.67,38.67,0,0,0,3.74-2.41l.16-.16a7.4,7.4,0,0,1-3.9.51,38.08,38.08,0,0,0,6-4.23l-.22,0,1.21-1.22a6,6,0,0,1-3.19.42A30.12,30.12,0,0,0,18.19,213a5.19,5.19,0,0,1-1.77.06l1.21-1.22a6.1,6.1,0,0,1-3.19.42c.71-.4,1.37-.82,2-1.26h0l1.21-1.22a6.1,6.1,0,0,1-3.19.42,31.59,31.59,0,0,0,5.14-3.63,4.64,4.64,0,0,1-2.23.22,25.89,25.89,0,0,0,4.31-3,4.24,4.24,0,0,1-2.67.48l1-1a5,5,0,0,1-2.64.35c.75-.42,1.46-.88,2.14-1.35a3.17,3.17,0,0,1-.5-.05l1-1a5,5,0,0,1-2.64.35,26.22,26.22,0,0,0,6.71-5.41,3.16,3.16,0,0,1-1.93.31l.76-.75a3.79,3.79,0,0,1-2,.26,20.39,20.39,0,0,0,2.42-1.62,3,3,0,0,1-1.2.05l.76-.76a3.75,3.75,0,0,1-2,.27,20.24,20.24,0,0,0,3-2.12l-.11,0c.18-.1.35-.22.52-.33a20.8,20.8,0,0,0,2.38-2.53,3.14,3.14,0,0,1-.63.11l.35-.55a2.31,2.31,0,0,1-1.73.43l.55-.55a2.76,2.76,0,0,1-1.44.19,14.57,14.57,0,0,0,2.29-1.61l.33-.53a2.29,2.29,0,0,1-1.73.44l.55-.55a2.76,2.76,0,0,1-1.44.19c6.63-3.74,7.64-11.2,7.72-12,0,0,0,0,0,0,.09.79,1.09,8.25,7.73,12a2.76,2.76,0,0,1-1.44-.19l.54.55a2.3,2.3,0,0,1-1.73-.44l.34.53a13.7,13.7,0,0,0,2.29,1.61,2.76,2.76,0,0,1-1.44-.19l.54.55a2.32,2.32,0,0,1-1.73-.43L37,189a3,3,0,0,1-.62-.11,20,20,0,0,0,2.37,2.53c.18.11.34.23.53.33l-.12,0a20.34,20.34,0,0,0,3,2.12,3.75,3.75,0,0,1-2-.27l.75.76a3,3,0,0,1-1.19-.05,19.6,19.6,0,0,0,2.42,1.62,3.79,3.79,0,0,1-2-.26l.75.75a3.16,3.16,0,0,1-1.93-.31,26.22,26.22,0,0,0,6.71,5.41,5,5,0,0,1-2.64-.35l1,1a3.13,3.13,0,0,1-.49.05,24.93,24.93,0,0,0,2.13,1.35,5,5,0,0,1-2.64-.35l1,1a4.21,4.21,0,0,1-2.66-.48,25.8,25.8,0,0,0,4.3,3,4.64,4.64,0,0,1-2.23-.22,31.59,31.59,0,0,0,5.14,3.63,6.06,6.06,0,0,1-3.18-.42L46.69,211h0c.65.44,1.32.86,2,1.26a6.06,6.06,0,0,1-3.18-.42l1.21,1.22a5.25,5.25,0,0,1-1.78-.06,30.12,30.12,0,0,0,3.75,2.49,5.93,5.93,0,0,1-3.18-.42l1.21,1.22-.23,0a38.18,38.18,0,0,0,6,4.23A7.43,7.43,0,0,1,48.6,220l.17.16a36.37,36.37,0,0,0,3.74,2.41,7.43,7.43,0,0,1-3.91-.51l1.49,1.49a5.07,5.07,0,0,1-1,.06,39.12,39.12,0,0,0,3.45,2.2,7.39,7.39,0,0,1-3.91-.52l1.49,1.49a5.72,5.72,0,0,1-1.64,0,8.48,8.48,0,0,1-2.53-.39l.14.23.58.58.29.27-.2,0a38.06,38.06,0,0,0,5.78,4l-.21,0c.79.47,1.6.93,2.45,1.37a8.61,8.61,0,0,1-4.06-.45c.59.38,1.19.75,1.82,1.1l-.21,0c.79.47,1.6.93,2.45,1.37A8.81,8.81,0,0,1,50.43,234.53Z"/><path class="cls-32" d="M28.61,233.44c1,.6,2,1.18,3.06,1.75H27.62l-.36-.08-.72,0,.11.1H0V141.57a15.23,15.23,0,0,0,7,9.37,2.68,2.68,0,0,1-1.38-.19l.53.53a2.22,2.22,0,0,1-1.66-.42l.32.51A13.33,13.33,0,0,0,7,152.91a2.58,2.58,0,0,1-1.38-.18l.53.53a2.22,2.22,0,0,1-1.66-.42l.33.53a2.83,2.83,0,0,1-.6-.11,20,20,0,0,0,2.28,2.44L7,156l-.1,0a18.64,18.64,0,0,0,2.9,2,3.71,3.71,0,0,1-1.91-.25l.73.72a3,3,0,0,1-1.15-.05A17.14,17.14,0,0,0,9.77,160a3.57,3.57,0,0,1-1.91-.25l.73.73a3.12,3.12,0,0,1-1.85-.3,25.17,25.17,0,0,0,6.43,5.19,4.81,4.81,0,0,1-2.53-.34l1,1a4,4,0,0,1-.47,0c.65.46,1.32.89,2,1.3a4.71,4.71,0,0,1-2.53-.33l1,1A4.14,4.14,0,0,1,9,167.55a25.14,25.14,0,0,0,4.13,2.92,4.45,4.45,0,0,1-2.13-.21A29.64,29.64,0,0,0,16,173.74a5.84,5.84,0,0,1-3.06-.4l1.16,1.16H14c.63.42,1.27.82,2,1.2a5.7,5.7,0,0,1-3.06-.4l1.16,1.17a4.8,4.8,0,0,1-1.7-.06,28.83,28.83,0,0,0,3.6,2.39,5.7,5.7,0,0,1-3.06-.4l1.16,1.17-.22,0a35.94,35.94,0,0,0,5.8,4,7,7,0,0,1-3.74-.49l.15.16a37.46,37.46,0,0,0,3.59,2.31,7,7,0,0,1-3.74-.49l1.42,1.43a5.65,5.65,0,0,1-1,.06,37.35,37.35,0,0,0,3.31,2.1,7,7,0,0,1-3.74-.49l1.42,1.43a5.49,5.49,0,0,1-1.57,0,7.9,7.9,0,0,1-2.42-.37l.13.22.55.55.29.27-.2,0a36.94,36.94,0,0,0,5.54,3.85l-.2,0c.76.46,1.53.9,2.35,1.32a8.35,8.35,0,0,1-3.89-.43c.56.36,1.14.72,1.74,1.05l-.2,0c.76.45,1.53.9,2.35,1.32a8.51,8.51,0,0,1-4.14-.5l1.57,1.45a5.15,5.15,0,0,1-.79.07c.4.24.79.49,1.21.72l-.18,0c.75.45,1.52.9,2.33,1.32a8.51,8.51,0,0,1-4.14-.5l1.57,1.45a7.08,7.08,0,0,1-2.59-.12,48.6,48.6,0,0,0,9.72,6.62,9.07,9.07,0,0,1-3.95-.32c1.25.8,2.55,1.58,3.95,2.3,0,0-1.65.42-5-.61l1.89,1.75-.25,0c1.07.66,2.18,1.31,3.35,1.92,0,0-1.65.42-5-.61l1.89,1.76a8.62,8.62,0,0,1-3.81-.32c.66.6,1.34,1.18,2,1.77a49.64,49.64,0,0,0,4.87,2.89,4.18,4.18,0,0,1-1,.09,60.18,60.18,0,0,0,7,4.24,9.82,9.82,0,0,1-3.76-.16c1.21.74,2.45,1.46,3.76,2.14a11.53,11.53,0,0,1-5.11-.47c-.22,0-.46,0-.72,0l.52.48c1.67,1.09,3.44,2.13,5.31,3.1,0,0-2,.52-6.11-.74l2.32,2.15a10,10,0,0,1-3,0,62.64,62.64,0,0,0,6.79,4.1A10.1,10.1,0,0,1,28.61,233.44Z"/></svg>